<svg width="512" height="512" viewBox="0 0 512 512" fill="none" xmlns="http://www.w3.org/2000/svg">
<g clip-path="url(#clip0)">
<path d="M341.333 48V205.653C331.093 207.573 321.067 210.56 311.68 214.4C247.893 239.147 202.667 301.013 202.667 373.333C202.667 391.893 205.653 410.027 211.413 426.667H48C21.6107 426.667 0 405.056 0 378.667V48C0 21.6107 21.6107 0 48 0H293.333C319.829 0 341.333 21.4827 341.333 48Z" fill="#EBEDF0"/>
<path d="M202.667 373.333C202.667 391.893 205.653 410.027 211.413 426.667H48C21.5467 426.667 0 405.12 0 378.667V308.053L48.2133 259.84C62.7413 245.333 86.6133 245.333 101.12 259.84L128 286.72L229.547 185.173C244.075 170.667 267.947 170.667 282.453 185.173L311.68 214.4C247.893 239.147 202.667 301.013 202.667 373.333Z" fill="#4CAF50"/>
<path d="M171.307 0H48C21.6107 0 0 21.6107 0 48V378.667V308.053L48.2133 259.84C55.4667 252.587 65.0667 248.96 74.6667 248.96C84.2667 248.96 93.8667 252.587 101.12 259.84L128 286.72L171.307 243.392V0Z" fill="#EBEDF0"/>
<path d="M171.307 243.413L128 286.72L101.12 259.84C93.8667 252.587 84.2667 248.96 74.6667 248.96C65.0667 248.96 55.4667 252.587 48.2133 259.84L0 308.053V378.667C0 405.12 21.5467 426.667 48 426.667H171.307V243.413Z" fill="#4CAF50"/>
<path d="M96 106.667C78.3573 106.667 64 121.024 64 138.667C64 156.309 78.3573 170.667 96 170.667C113.643 170.667 128 156.309 128 138.667C128 121.024 113.643 106.667 96 106.667Z" fill="#FFC107"/>
<path d="M96 106.667C78.3573 106.667 64 121.024 64 138.667C64 156.309 78.3573 170.667 96 170.667V106.667Z" fill="#FFC107"/>
<path d="M373.333 234.667C296.875 234.667 234.667 296.875 234.667 373.333C234.667 449.792 296.875 512 373.333 512C449.792 512 512 449.792 512 373.333C512 296.875 449.792 234.667 373.333 234.667Z" fill="#4CAF50"/>
<path d="M373.333 448C364.501 448 357.333 440.832 357.333 432V314.667C357.333 305.835 364.501 298.667 373.333 298.667C382.165 298.667 389.333 305.835 389.333 314.667V432C389.333 440.832 382.165 448 373.333 448Z" fill="#EBEDF0"/>
<path d="M432 389.333H314.667C305.835 389.333 298.667 382.165 298.667 373.333C298.667 364.501 305.835 357.333 314.667 357.333H432C440.832 357.333 448 364.501 448 373.333C448 382.165 440.832 389.333 432 389.333Z" fill="#EBEDF0"/>
<path d="M373.333 234.667C296.875 234.667 234.667 296.875 234.667 373.333C234.667 449.792 296.875 512 373.333 512V448C364.501 448 357.333 440.832 357.333 432V389.333H314.667C305.835 389.333 298.667 382.165 298.667 373.333C298.667 364.501 305.835 357.333 314.667 357.333H357.333V314.667C357.333 305.835 364.501 298.667 373.333 298.667V234.667Z" fill="#4CAF50"/>
<path d="M373.333 389.333H357.333V432C357.333 440.832 364.501 448 373.333 448V389.333ZM373.333 298.667C364.501 298.667 357.333 305.835 357.333 314.667V357.333H373.333V298.667Z" fill="#EBEDF0"/>
<path d="M373.333 357.333H357.333H314.667C305.835 357.333 298.667 364.501 298.667 373.333C298.667 382.165 305.835 389.333 314.667 389.333H357.333H373.333V357.333Z" fill="#EBEDF0"/>
</g>
<defs>
<clipPath id="clip0">
<rect width="512" height="512" fill="white"/>
</clipPath>
</defs>
</svg>
