<svg width="100" height="100" viewBox="0 0 100 100" fill="none" xmlns="http://www.w3.org/2000/svg">
<path d="M50.0361 0.718018C37.0405 0.718034 24.5772 5.88053 15.3879 15.0698C6.19861 24.2591 1.03613 36.7224 1.03613 49.718C1.03613 62.7136 6.19861 75.1769 15.3879 84.3662C24.5772 93.5555 37.0405 98.718 50.0361 98.718C56.4709 98.718 62.8426 97.4506 68.7876 94.9881C74.7326 92.5256 80.1343 88.9163 84.6843 84.3663C89.2344 79.8162 92.8437 74.4145 95.3062 68.4695C97.7687 62.5246 99.0361 56.1528 99.0361 49.718C99.0361 43.2832 97.7687 36.9115 95.3062 30.9665C92.8437 25.0216 89.2344 19.6199 84.6843 15.0698C80.1343 10.5197 74.7326 6.9104 68.7876 4.44792C62.8426 1.98544 56.4709 0.718016 50.0361 0.718018V0.718018ZM56.5952 18.339H56.667C59.5451 18.3911 60.4653 21.0489 60.4653 21.0489C60.4653 21.0489 62.9257 25.8955 60.6284 31.8234C58.6901 36.8329 58.292 37.2368 58.292 37.2368C58.292 37.2368 57.6655 38.1423 59.6495 38.1032C59.6495 38.1032 71.7625 38.051 72.1802 38.051C73.0743 38.051 75.9263 38.8653 75.7631 42.4937C75.6457 45.1776 73.9749 46.1157 73.12 46.4219C73.009 46.4609 72.9502 46.5847 72.9959 46.6954C73.0155 46.741 73.0481 46.7801 73.0938 46.8062C73.9683 47.3143 75.7566 48.5976 75.7174 50.5649C75.6652 52.9491 74.7058 53.8285 72.7087 54.3757C72.5978 54.4018 72.526 54.519 72.5586 54.6297C72.5717 54.6884 72.6109 54.734 72.6566 54.76C73.4136 55.19 74.7124 56.2388 74.634 58.3624C74.5557 60.5251 72.9894 61.2873 72.1344 61.5478C72.0235 61.5804 71.9582 61.6976 71.9909 61.8084C72.004 61.854 72.0365 61.8996 72.0757 61.9257C72.6174 62.297 73.4201 63.1373 73.381 64.8636C73.3614 65.7756 73.0547 66.44 72.6696 66.9156C72.0627 67.6647 71.1098 68.0556 70.1439 68.0621L43.2683 68.1142C43.2618 68.1077 41.8064 68.1142 41.8064 66.1664V48.4738C41.8129 44.1158 43.0333 39.849 45.3371 36.1489C46.7403 33.908 49.886 30.3187 51.6481 28.4621C52.0397 28.0452 53.4625 26.8205 53.4625 26.1495C53.4625 25.2897 53.5604 23.9021 53.593 21.316C53.6126 19.6744 54.9505 18.326 56.5952 18.339V18.339ZM25.7253 44.2005H36.5004C37.3489 44.2005 38.0407 44.8845 38.0407 45.7378V70.4332C38.0407 71.2801 37.3554 71.9706 36.5004 71.9706H25.7253C24.8769 71.9706 24.1852 71.2866 24.1852 70.4332V45.7313C24.1917 44.8845 24.8769 44.2005 25.7253 44.2005V44.2005Z" fill="#6D9CD8"/>
</svg>
