<svg width="1946" height="1969" viewBox="0 0 1946 1969" fill="none" xmlns="http://www.w3.org/2000/svg">
<path d="M1538.43 1953.46L206.344 1951.88C193.528 1945.47 180.865 1938.66 168.412 1931.39C58.5856 1867.14 45.7641 1713.46 141.342 1629.5C156.842 1615.84 172.553 1602.79 188.477 1590.15C175.284 1595.16 161.642 1597.53 148.245 1597.51C107.991 1597.46 69.4571 1575.86 49.0872 1538.75C-34.6263 1386.37 -5.60996 1197.06 119.257 1076.08C291.085 909.649 448.494 786.868 606.945 704.371L594.569 710.194C572.51 720.481 549.066 725.442 525.87 725.415C479.264 725.359 433.652 705.224 402.153 667.866C351.054 607.233 329.669 532.781 335.047 460.774C340.119 392.727 369.2 326.868 419.735 277.088C437.508 259.536 457.881 243.987 480.851 231.067C621.939 151.422 764.256 80.0711 907.955 18.1487C945.627 1.92685 986.369 -1.81137 1024.8 5.79436C1065.95 13.9233 1104.46 35.0493 1133.66 67.8307C1134.38 68.6849 1135.17 69.5658 1135.93 70.4067C1178.15 118.19 1192.83 180.928 1181.3 239.341C1173.51 278.945 1153.66 316.548 1122.14 346.15L1013.54 448.275L1111.1 421.631C1286.69 373.72 1470.7 461.219 1544.88 627.4C1545.78 629.428 1546.66 631.429 1547.57 633.457C1566.95 677.236 1576.15 722.944 1576.1 767.916C1576.07 795.8 1572.5 823.379 1565.63 850.044L1565.63 850.074C1564.17 855.698 1562.56 861.291 1560.83 866.854C1560.83 866.883 1560.79 866.914 1560.79 866.945C1556.79 879.672 1552.03 892.126 1546.48 904.308C1533.14 933.839 1515.41 961.46 1493.76 986.144C1462.88 1021.37 1423.88 1050.57 1378.1 1070.62C1602.23 1047.67 1814.9 1172.49 1905.51 1378.74C1906.81 1381.72 1908.12 1384.73 1909.43 1387.73C2025.67 1655 1829.89 1953.81 1538.43 1953.46" fill="#F6FBFE"/>
<path d="M1587.41 1120.92C1587.31 1203.09 1571.97 1282.12 1543.56 1354.28C1449.9 1596.3 1215.04 1767.5 939.925 1767.17C930.902 1767.16 921.876 1766.85 912.85 1766.52C822.605 1762.67 737.354 1740.48 660.528 1703.35C626.314 1686.81 593.658 1667.48 563.185 1645.66C524.004 1617.61 488.564 1585.2 456.555 1549.37C367.972 1449.67 309.926 1322.01 296.709 1181.63C294.557 1161.09 293.652 1140.23 293.677 1119.39C294.009 840.532 471.061 602.976 718.585 512.39L718.897 512.391C788.327 486.953 863.348 473.349 941.464 473.442C1003.09 473.516 1062.83 482.307 1119.14 498.547C1389.81 575.749 1587.76 825.266 1587.41 1120.92Z" fill="#6D9CD8"/>
<path d="M1109.67 872.936L1062.64 904.313C1022.77 930.719 1004.04 979.87 1016.43 1025.94L1044.01 1129.3C1054.23 1167.59 1007.83 1195.24 979.229 1167.81L769.395 967.763C659.662 863.376 629.664 700.883 694.247 564.028L718.584 512.39L718.896 512.391C788.327 486.953 863.348 473.349 941.464 473.442C1003.09 473.515 1062.83 482.307 1119.14 498.547L1166.99 566.137C1237.83 666.13 1211.83 804.9 1109.67 872.936Z" fill="#82D3A5"/>
<path d="M730.474 1506.43L660.528 1703.35C626.314 1686.81 593.658 1667.48 563.185 1645.66C567.905 1603.65 539.628 1565.34 498.243 1557.2L456.555 1549.37C367.972 1449.67 309.926 1322.01 296.709 1181.63L330.36 1151.17C369.616 1115.74 429.676 1117.68 466.669 1155.38L519.825 1209.28C534.745 1224.55 558.083 1227.07 575.834 1215.58C590.16 1206.57 605.726 1202.23 621.286 1202.25C653.966 1202.29 685.373 1221.31 699.343 1253.69L724.478 1312.85C750.55 1374.19 752.649 1443.59 730.474 1506.43Z" fill="#82D3A5"/>
<path d="M1543.56 1354.28C1449.9 1596.3 1215.04 1767.5 939.925 1767.17C930.902 1767.16 921.876 1766.85 912.85 1766.52L950.399 1594.15C954.157 1577.66 969.421 1566.48 986.225 1568.06L1095.14 1577.2C1107.58 1578.16 1119.42 1572.56 1125.97 1562.3L1264.4 1352.08C1271.88 1340.26 1286.2 1334.37 1299.89 1337.5L1300.2 1337.82C1319.18 1342.19 1330.68 1361.81 1324.74 1380.47L1317.55 1404.12C1309.74 1428.69 1331.5 1452.37 1356.72 1446.8L1380.68 1441.54C1395.94 1438.45 1407.16 1424.77 1407.18 1408.9L1407.22 1371.86C1407.24 1351.32 1425.62 1335.47 1446.17 1338.6L1543.56 1354.28" fill="#82D3A5"/>
<path d="M1070.11 1197.87L1100.34 1186C1110.18 1182.13 1121.29 1186.94 1125.21 1196.77L1149.85 1258.63C1153.63 1268.12 1149.32 1278.91 1140.04 1283.18L1129.93 1287.83C1121.99 1291.49 1112.59 1289.32 1107.05 1282.56L1062.28 1227.93C1054.02 1217.85 1057.98 1202.64 1070.11 1197.87" fill="#82D3A5"/>
<path d="M1330.87 1242.91L1298.95 1259.91C1290.82 1264.24 1287.19 1273.94 1290.48 1282.54L1290.49 1282.55C1293.19 1289.6 1299.95 1294.25 1307.5 1294.26L1357.69 1294.32C1374.26 1294.34 1382.27 1274.05 1370.16 1262.74L1351.89 1245.68C1346.2 1240.36 1337.75 1239.25 1330.87 1242.91" fill="#82D3A5"/>
<path d="M392.501 1070.92L416.363 1070.95C422.591 1070.96 427.291 1065.3 426.141 1059.18L414.285 996.05C412.259 985.258 396.808 985.24 394.756 996.027L382.75 1059.13C381.587 1065.25 386.273 1070.92 392.501 1070.92Z" fill="#82D3A5"/>
<path d="M605.412 1170.11L645.706 1165.49C654.189 1164.52 661.011 1158.06 662.45 1149.65L665.572 1131.4C666.774 1124.38 663.987 1117.27 658.337 1112.93L624.202 1086.72C617.077 1081.25 607.109 1081.45 600.207 1087.2L573.913 1109.12C566.532 1115.27 564.834 1125.93 569.935 1134.07L586.95 1161.22C590.878 1167.49 598.061 1170.95 605.412 1170.11Z" fill="#82D3A5"/>
<path d="M1235.98 751.945L1217.04 800.25C1212.1 812.84 1221.37 826.453 1234.9 826.469L1246.82 826.483C1255.99 826.494 1263.89 820.015 1265.68 811.018L1275.72 760.472C1279.14 743.268 1259.6 730.861 1245.48 741.271L1242.46 743.496C1239.55 745.645 1237.3 748.573 1235.98 751.945" fill="#82D3A5"/>
<path d="M767.499 446.955L335.036 460.774C340.129 392.713 369.2 326.881 419.739 277.088C419.105 280.181 418.412 283.326 417.597 286.539C417.597 286.539 554.946 250.142 596.071 294.191C637.194 338.267 550.505 375.137 550.505 375.137C550.505 375.137 715.021 359.666 744.726 390.235C774.402 420.79 664.363 433.166 664.363 433.166L767.499 446.955" fill="#E1EDF9"/>
<path d="M1181.3 239.341L1012.45 244.74C1012.45 244.74 911.852 200.34 957.686 134.408C1003.49 68.4356 1083.58 91.7576 1083.58 91.7576C1083.58 91.7576 1032.43 47.9633 1024.8 5.79424C1065.95 13.9232 1104.46 35.0491 1133.66 67.8306C1134.38 68.6848 1135.17 69.5657 1135.93 70.4066C1178.15 118.19 1192.83 180.928 1181.3 239.341" fill="#E1EDF9"/>
<path d="M126 1546.34C125.998 1546.34 125.995 1546.34 125.994 1546.34C122.068 1546.32 118.891 1543.14 118.896 1539.21C118.896 1539.02 118.91 1534.36 119.679 1526.71C120.072 1522.79 123.61 1519.95 127.467 1520.33C131.377 1520.72 134.227 1524.22 133.835 1528.12C133.144 1535.01 133.123 1539.2 133.123 1539.24C133.111 1543.16 129.923 1546.34 126 1546.34" fill="#B2D5E7"/>
<path d="M145.628 1466.36C144.596 1466.36 143.547 1466.13 142.554 1465.65C139.016 1463.94 137.526 1459.7 139.233 1456.15C142.864 1448.61 146.976 1441.4 151.454 1434.72C153.64 1431.45 158.057 1430.58 161.323 1432.77C164.588 1434.95 165.463 1439.37 163.277 1442.62C159.171 1448.77 155.393 1455.39 152.05 1462.33C150.824 1464.88 148.277 1466.37 145.628 1466.36V1466.36ZM130.465 1511.14C129.972 1511.14 129.47 1511.09 128.967 1510.98C125.127 1510.15 122.686 1506.38 123.513 1502.54C125.249 1494.49 127.429 1486.54 129.99 1478.92C131.242 1475.21 135.266 1473.18 139.001 1474.45C142.725 1475.71 144.728 1479.73 143.476 1483.45C141.082 1490.57 139.045 1498.01 137.421 1505.53C136.703 1508.87 133.747 1511.15 130.465 1511.14Z" fill="#B2D5E7"/>
<path d="M794.963 80.1207C791.478 80.1166 788.438 77.553 787.937 74.0057C787.388 70.1118 790.095 66.515 793.987 65.9597C802.043 64.8226 810.25 64.139 818.38 63.9086C822.276 63.7933 825.579 66.8905 825.69 70.824C825.799 74.7441 822.703 78.0205 818.776 78.1358C811.176 78.3401 803.504 78.9842 795.975 80.0553C795.635 80.0949 795.296 80.1211 794.963 80.1207V80.1207ZM865.715 81.9917C865.279 81.9911 864.837 81.9506 864.393 81.8567C856.815 80.4211 849.168 79.3853 841.665 78.763C837.75 78.4384 834.836 75.0082 835.16 71.0886C835.485 67.1823 838.886 64.2264 842.836 64.5911C850.831 65.254 858.974 66.357 867.04 67.8866C870.899 68.6112 873.438 72.3342 872.706 76.2C872.061 79.6125 869.07 81.9956 865.715 81.9917ZM749.158 91.8397C746.277 91.8363 743.57 90.073 742.501 87.2184C741.126 83.5367 742.993 79.4456 746.671 78.0633C754.339 75.1924 762.184 72.7218 769.985 70.7311C773.779 69.7623 777.665 72.0336 778.644 75.8481C779.62 79.6492 777.327 83.5265 773.52 84.5086C766.209 86.38 758.853 88.7045 751.658 91.3893C750.833 91.695 749.988 91.8407 749.158 91.8397V91.8397ZM909.587 98.2972C908.288 98.2957 906.974 97.9341 905.796 97.1994C899.763 93.3655 893.123 90.131 886.064 87.5759C882.369 86.2248 880.462 82.1559 881.802 78.4642C883.143 74.7591 887.222 72.8572 890.914 74.1949C898.943 77.1112 906.51 80.8002 913.41 85.1685C916.729 87.2791 917.715 91.6669 915.612 94.9844C914.255 97.1294 911.947 98.3001 909.587 98.2972V98.2972ZM706.804 112.883C704.5 112.88 702.244 111.77 700.876 109.702C698.705 106.433 699.602 102.007 702.877 99.8379C706.337 97.5487 709.945 95.3663 713.601 93.344C717.077 91.4148 720.636 89.5524 724.278 87.7567C727.805 86.0142 732.072 87.4593 733.806 90.9947C735.546 94.5035 734.098 98.7817 730.576 100.511C727.133 102.213 723.768 103.983 720.484 105.792C717.161 107.628 713.88 109.624 710.736 111.701C709.523 112.513 708.156 112.884 706.804 112.883V112.883ZM942.735 131.39C940.439 131.387 938.187 130.278 936.819 128.236C932.455 121.698 927.886 116.039 922.849 110.953C920.084 108.163 920.108 103.656 922.9 100.886C925.691 98.1297 930.192 98.1484 932.961 100.938C938.565 106.612 943.845 113.125 948.653 120.33C950.835 123.6 949.953 128.012 946.685 130.195C945.469 131.007 944.094 131.392 942.735 131.39V131.39ZM672.077 144.828C670.535 144.826 668.981 144.331 667.677 143.303C664.595 140.859 664.072 136.392 666.51 133.301C671.634 126.827 677.303 120.714 683.357 115.135C686.251 112.472 690.748 112.664 693.409 115.547C696.071 118.43 695.888 122.936 692.997 125.599C687.489 130.673 682.332 136.227 677.67 142.128C676.264 143.913 674.179 144.83 672.077 144.828V144.828ZM963.737 173.748C960.884 173.745 958.192 172.008 957.105 169.18C954.048 161.23 951.067 154.293 947.997 147.97C946.281 144.434 947.756 140.169 951.29 138.454C954.816 136.738 959.077 138.223 960.796 141.758C964.044 148.442 967.18 155.739 970.385 164.076C971.794 167.745 969.963 171.862 966.299 173.271C965.455 173.59 964.588 173.749 963.737 173.748V173.748ZM648.853 185.92C648.018 185.919 647.172 185.772 646.346 185.451C642.67 184.06 640.817 179.964 642.206 176.286C645.126 168.569 648.657 161.027 652.702 153.858C654.635 150.447 658.974 149.239 662.394 151.176C665.815 153.101 667.02 157.449 665.088 160.86C661.4 167.389 658.178 174.278 655.516 181.315C654.438 184.167 651.726 185.924 648.853 185.92ZM979.125 218.62C976.137 218.616 973.357 216.72 972.372 213.732L970.161 206.983C968.441 201.701 966.719 196.445 964.971 191.23C963.715 187.508 965.721 183.484 969.446 182.222C973.171 180.973 977.202 182.978 978.454 186.699C980.217 191.955 981.952 197.25 983.687 202.559L985.892 209.281C987.116 213.016 985.085 217.04 981.352 218.263C980.616 218.502 979.86 218.621 979.125 218.62V218.62ZM638.983 232.082C638.843 232.082 638.701 232.082 638.558 232.068C634.634 231.837 631.648 228.46 631.883 224.54C632.379 216.327 633.504 208.075 635.224 200.024C636.043 196.185 639.817 193.723 643.668 194.554C647.51 195.372 649.96 199.162 649.138 203.001C647.564 210.359 646.538 217.891 646.087 225.397C645.858 229.184 642.721 232.086 638.983 232.082ZM995.308 263.199C992.539 263.196 989.911 261.566 988.76 258.858C985.888 252.081 983.045 244.718 980.061 236.355C978.742 232.646 980.673 228.582 984.371 227.266C988.068 225.937 992.141 227.876 993.46 231.57C996.351 239.681 999.098 246.791 1001.87 253.314C1003.39 256.929 1001.71 261.1 998.087 262.629C997.18 263.015 996.236 263.2 995.308 263.199V263.199ZM642.481 279.233C638.959 279.229 635.904 276.612 635.443 273.038C634.876 268.637 634.258 264.356 633.601 260.182C633.033 256.595 632.579 252.928 632.252 249.274C631.901 245.367 634.785 241.904 638.699 241.548C642.585 241.193 646.069 244.09 646.422 247.998C646.72 251.331 647.135 254.692 647.655 257.972C648.332 262.266 648.968 266.681 649.552 271.215C650.058 275.108 647.304 278.679 643.409 279.181C643.095 279.22 642.786 279.233 642.481 279.233V279.233ZM1018.01 304.64C1015.81 304.637 1013.64 303.608 1012.25 301.686C1007.67 295.374 1003.3 288.356 999.243 280.844C997.376 277.388 998.67 273.07 1002.13 271.207C1005.57 269.332 1009.9 270.617 1011.77 274.086C1015.58 281.143 1019.51 287.455 1023.78 293.353C1026.08 296.543 1025.36 300.982 1022.18 303.285C1020.92 304.203 1019.46 304.641 1018.01 304.64ZM646.002 326.477C642.132 326.472 638.963 323.362 638.901 319.482C638.774 311.868 638.41 304.041 637.819 296.227C637.522 292.307 640.458 288.897 644.378 288.595C648.326 288.32 651.71 291.244 652.006 295.151C652.617 303.258 652.994 311.352 653.124 319.246C653.191 323.179 650.059 326.415 646.131 326.477C646.087 326.477 646.043 326.477 646.002 326.477V326.477ZM1051.47 337.6C1050.08 337.598 1048.69 337.183 1047.46 336.341C1040.66 331.68 1034.23 326.366 1028.33 320.532C1025.53 317.769 1025.51 313.262 1028.27 310.465C1031.03 307.668 1035.54 307.661 1038.33 310.41C1043.63 315.657 1049.41 320.424 1055.5 324.604C1058.74 326.835 1059.57 331.262 1057.35 334.5C1055.97 336.511 1053.74 337.602 1051.47 337.6ZM1094.07 357.277C1093.42 357.276 1092.76 357.182 1092.1 357.008C1084.01 354.665 1076.24 351.802 1069.02 348.514C1065.45 346.869 1063.88 342.654 1065.51 339.083C1067.15 335.512 1071.37 333.93 1074.94 335.574C1081.52 338.582 1088.62 341.19 1096.05 343.333C1099.82 344.417 1102 348.366 1100.91 352.138C1100.01 355.257 1097.16 357.281 1094.07 357.277V357.277ZM1140.53 364.986C1140.38 364.985 1140.23 364.985 1140.07 364.972C1131.71 364.428 1123.6 363.525 1115.96 362.29C1112.07 361.658 1109.44 358.002 1110.06 354.123C1110.7 350.243 1114.36 347.594 1118.22 348.239C1125.43 349.407 1133.09 350.257 1141 350.773C1144.92 351.031 1147.89 354.421 1147.63 358.341C1147.39 362.1 1144.25 364.99 1140.53 364.986V364.986ZM1187.86 366.629C1187.65 366.628 1187.45 366.615 1187.24 366.601C1179.83 365.952 1172.1 365.623 1164.27 365.614C1160.34 365.609 1157.12 362.419 1157.12 358.499C1157.13 354.565 1160.28 351.382 1164.21 351.387L1164.28 351.387C1172.51 351.397 1180.65 351.74 1188.47 352.416C1192.38 352.754 1195.28 356.211 1194.94 360.117C1194.62 363.837 1191.51 366.633 1187.86 366.629ZM643.644 373.794C643.356 373.794 643.067 373.767 642.778 373.74C638.875 373.255 636.104 369.705 636.58 365.813C637.497 358.334 638.157 350.561 638.537 342.708C638.727 338.788 641.981 335.739 645.991 335.944C649.913 336.148 652.94 339.485 652.75 343.405C652.351 351.605 651.664 359.724 650.705 367.536C650.261 371.149 647.188 373.799 643.644 373.794V373.794ZM1234.27 375.497C1233.57 375.496 1232.86 375.389 1232.16 375.174C1225.09 372.966 1217.63 371.117 1209.99 369.681C1206.13 368.957 1203.59 365.234 1204.31 361.381C1205.04 357.516 1208.8 354.987 1212.62 355.698C1220.8 357.241 1228.79 359.21 1236.39 361.58C1240.14 362.757 1242.24 366.733 1241.07 370.492C1240.12 373.544 1237.31 375.501 1234.27 375.497V375.497ZM1277.01 395.495C1275.67 395.493 1274.31 395.105 1273.1 394.317C1266.93 390.243 1260.29 386.541 1253.36 383.32C1249.8 381.662 1248.25 377.434 1249.9 373.876C1251.56 370.304 1255.8 368.763 1259.36 370.42C1266.93 373.936 1274.19 377.971 1280.94 382.433C1284.22 384.596 1285.12 389.011 1282.96 392.288C1281.59 394.367 1279.32 395.497 1277.01 395.495V395.495ZM633.926 420.129C633.237 420.129 632.538 420.021 631.844 419.807C628.089 418.656 625.979 414.68 627.132 410.921C629.331 403.764 631.253 396.26 632.844 388.608C633.64 384.769 637.394 382.267 641.256 383.098C645.101 383.889 647.573 387.652 646.771 391.505C645.092 399.583 643.061 407.527 640.735 415.098C639.793 418.163 636.972 420.133 633.926 420.129V420.129ZM1311.74 427.416C1309.63 427.413 1307.55 426.478 1306.14 424.689C1301.52 418.777 1296.38 413.224 1290.86 408.164C1287.97 405.508 1287.78 401.001 1290.43 398.111C1293.09 395.22 1297.6 395.026 1300.48 397.682C1306.57 403.263 1312.24 409.403 1317.35 415.916C1319.77 418.999 1319.23 423.478 1316.13 425.901C1314.83 426.926 1313.28 427.418 1311.74 427.416V427.416ZM615.339 463.627C614.153 463.626 612.948 463.318 611.845 462.69C608.427 460.752 607.227 456.418 609.166 452.993C612.871 446.464 616.274 439.562 619.282 432.485C620.821 428.874 625.006 427.199 628.611 428.723C632.226 430.261 633.912 434.436 632.378 438.048C629.159 445.617 625.513 453.013 621.542 460.021C620.231 462.327 617.819 463.63 615.339 463.627ZM1334.63 468.657C1331.75 468.653 1329.03 466.877 1327.97 464.009C1325.32 456.859 1322.15 449.948 1318.57 443.477C1316.67 440.035 1317.91 435.717 1321.35 433.814C1324.79 431.911 1329.12 433.143 1331.02 436.586C1334.95 443.684 1338.41 451.248 1341.31 459.064C1342.67 462.746 1340.8 466.837 1337.11 468.206C1336.29 468.512 1335.45 468.657 1334.63 468.657V468.657ZM586.464 500.82C584.458 500.817 582.465 499.975 581.061 498.32C578.509 495.344 578.861 490.851 581.849 488.294C586.635 484.207 590.795 479.891 594.21 475.482C595.067 474.377 595.91 473.271 596.74 472.139C599.075 468.981 603.532 468.32 606.69 470.657C609.847 472.994 610.514 477.448 608.178 480.606C607.288 481.805 606.381 483.003 605.458 484.202C601.451 489.371 596.617 494.392 591.09 499.119C589.748 500.264 588.102 500.822 586.464 500.82V500.82ZM1344.89 514.762C1341.27 514.758 1338.16 511.981 1337.83 508.3C1337.12 500.633 1335.96 493.058 1334.35 485.776C1333.51 481.949 1335.93 478.151 1339.76 477.303C1343.59 476.44 1347.4 478.885 1348.25 482.713C1349.98 490.568 1351.25 498.743 1352 506.997C1352.35 510.918 1349.48 514.381 1345.56 514.736C1345.33 514.749 1345.12 514.762 1344.89 514.762V514.762ZM546.229 525.572C543.555 525.569 540.999 524.046 539.791 521.471C538.123 517.909 539.656 513.671 543.213 512.008C550.794 508.457 557.44 504.959 563.53 501.299C566.9 499.276 571.268 500.375 573.291 503.737C575.312 507.1 574.222 511.472 570.851 513.495C564.343 517.407 557.275 521.132 549.251 524.895C548.272 525.348 547.243 525.573 546.229 525.572V525.572ZM502.149 543.093C499.211 543.089 496.463 541.246 495.442 538.311C494.147 534.603 496.103 530.552 499.812 529.25C507.928 526.42 515.128 523.762 521.822 521.143C525.477 519.694 529.61 521.512 531.043 525.167C532.478 528.822 530.679 532.94 527.021 534.389C520.156 537.074 512.791 539.799 504.503 542.682C503.724 542.961 502.929 543.094 502.149 543.093V543.093ZM457.262 557.853C454.233 557.849 451.378 555.952 450.414 552.938C449.218 549.19 451.167 545.232 454.908 544.037L455.139 543.957C462.64 541.566 470.097 539.175 477.462 536.783C481.189 535.561 485.213 537.593 486.43 541.327C487.65 545.062 485.61 549.086 481.874 550.295C474.486 552.713 466.999 555.104 459.472 557.509C458.742 557.748 457.996 557.854 457.262 557.853V557.853ZM1343.84 562.041C1343.53 562.04 1343.22 562.027 1342.92 561.973C1339.02 561.475 1336.27 557.899 1336.79 554.006C1337.79 546.34 1338.4 538.661 1338.58 531.141C1338.68 527.221 1342.02 524.079 1345.85 524.203C1349.79 524.301 1352.89 527.558 1352.81 531.492C1352.61 539.505 1351.96 547.704 1350.9 555.849C1350.43 559.435 1347.36 562.045 1343.84 562.041V562.041ZM411.975 572.772C409.034 572.769 406.285 570.925 405.265 567.991C403.973 564.283 405.934 560.232 409.645 558.943C417.125 556.338 424.68 553.814 432.253 551.33C435.99 550.121 440.008 552.152 441.229 555.887C442.45 559.622 440.413 563.633 436.679 564.855C429.19 567.313 421.719 569.797 414.321 572.375C413.545 572.641 412.753 572.773 411.975 572.772V572.772ZM367.756 589.946C365.029 589.943 362.43 588.367 361.257 585.712C359.665 582.123 361.288 577.912 364.88 576.329C371.797 573.258 379.076 570.266 387.131 567.156C390.81 565.747 394.915 567.565 396.329 571.234C397.742 574.902 395.917 579.02 392.251 580.429C384.415 583.446 377.346 586.371 370.641 589.336C369.702 589.749 368.72 589.947 367.756 589.946ZM1332.99 608.068C1332.23 608.067 1331.46 607.933 1330.7 607.679C1326.99 606.408 1325 602.365 1326.27 598.647C1328.74 591.396 1330.88 583.972 1332.63 576.561C1333.53 572.749 1337.36 570.38 1341.19 571.278C1345.01 572.189 1347.38 576.018 1346.47 579.844C1344.62 587.682 1342.36 595.559 1339.73 603.249C1338.72 606.208 1335.96 608.072 1332.99 608.068V608.068ZM326.015 612.31C323.713 612.307 321.456 611.198 320.088 609.13C317.917 605.86 318.809 601.435 322.085 599.265C328.478 595.033 335.544 590.855 343.084 586.864C346.558 585.014 350.862 586.339 352.7 589.808C354.539 593.291 353.215 597.596 349.742 599.432C342.615 603.21 335.956 607.148 329.948 611.128C328.737 611.926 327.367 612.312 326.015 612.31V612.31ZM290.841 643.672C289.295 643.67 287.739 643.166 286.434 642.131C283.356 639.69 282.838 635.215 285.282 632.141C290.225 625.907 296.015 619.861 302.487 614.175C305.433 611.579 309.926 611.864 312.528 614.814C315.12 617.764 314.832 622.257 311.881 624.853C306.046 629.98 300.846 635.411 296.427 640.981C295.023 642.753 292.941 643.675 290.841 643.672V643.672ZM270.355 685.716C269.821 685.715 269.277 685.652 268.732 685.525C264.907 684.627 262.533 680.798 263.43 676.974C265.357 668.756 268.192 660.798 271.85 653.32C273.577 649.788 277.837 648.335 281.367 650.057C284.897 651.784 286.357 656.044 284.631 659.574C281.439 666.096 278.966 673.042 277.283 680.224C276.513 683.503 273.585 685.72 270.355 685.716V685.716ZM268.594 732.659C265.077 732.655 262.024 730.043 261.558 726.463C260.642 719.423 260.184 712.49 260.191 705.864C260.193 704.465 260.215 703.077 260.256 701.702C260.381 697.775 263.666 694.729 267.591 694.815C271.518 694.94 274.601 698.223 274.479 702.15C274.437 703.382 274.42 704.625 274.418 705.881C274.411 711.891 274.831 718.2 275.668 724.627C276.174 728.525 273.426 732.093 269.53 732.6C269.216 732.641 268.904 732.659 268.594 732.659V732.659ZM280.142 778.51C277.226 778.507 274.497 776.697 273.455 773.797C270.607 765.859 268.189 758.036 266.262 750.543C265.285 746.738 267.578 742.861 271.383 741.884C275.194 740.902 279.066 743.197 280.042 747.003C281.859 754.072 284.148 761.47 286.846 768.991C288.173 772.69 286.251 776.764 282.554 778.089C281.756 778.375 280.944 778.511 280.142 778.51V778.51ZM299.173 821.865C296.592 821.862 294.102 820.445 292.845 817.988C289.068 810.607 285.576 803.293 282.464 796.249C280.875 792.655 282.501 788.454 286.095 786.868C289.684 785.267 293.884 786.902 295.476 790.499C298.481 797.296 301.858 804.365 305.511 811.51C307.302 815.005 305.916 819.293 302.417 821.081C301.379 821.613 300.267 821.866 299.173 821.865V821.865ZM322.599 863.033C320.226 863.03 317.905 861.839 316.559 859.675C312.226 852.707 308.096 845.787 304.284 839.106C302.336 835.695 303.521 831.35 306.935 829.402C310.351 827.447 314.691 828.642 316.639 832.054C320.364 838.579 324.402 845.343 328.643 852.164C330.716 855.498 329.694 859.885 326.356 861.961C325.186 862.689 323.884 863.034 322.599 863.033V863.033ZM348.846 902.473C346.615 902.471 344.419 901.423 343.036 899.462C338.325 892.793 333.778 886.166 329.518 879.772C327.338 876.505 328.223 872.087 331.494 869.907C334.763 867.727 339.178 868.615 341.358 871.886C345.546 878.172 350.021 884.689 354.658 891.256C356.924 894.466 356.16 898.905 352.95 901.17C351.701 902.053 350.264 902.475 348.846 902.473V902.473ZM376.999 940.582C374.844 940.579 372.717 939.602 371.321 937.749L366.029 930.766C362.951 926.723 359.951 922.733 357.026 918.786C354.686 915.628 355.349 911.174 358.506 908.834C361.659 906.497 366.115 907.158 368.456 910.314C371.344 914.211 374.308 918.156 377.349 922.147L382.683 929.186C385.047 932.322 384.422 936.784 381.283 939.149C380.001 940.117 378.492 940.583 376.999 940.582V940.582ZM404.937 978.847C402.707 978.844 400.512 977.795 399.126 975.835C394.695 969.553 390.113 963.173 385.376 956.684C383.06 953.51 383.753 949.06 386.928 946.744C390.105 944.426 394.551 945.122 396.867 948.296C401.651 954.845 406.28 961.291 410.752 967.632C413.018 970.842 412.251 975.28 409.042 977.546C407.791 978.426 406.357 978.849 404.937 978.847V978.847ZM431.521 1018.06C429.195 1018.06 426.915 1016.92 425.556 1014.82C421.392 1008.4 417.054 1001.86 412.538 995.204C410.331 991.953 411.178 987.529 414.43 985.323C417.683 983.118 422.105 983.965 424.31 987.215C428.883 993.955 433.276 1000.58 437.49 1007.08C439.629 1010.37 438.691 1014.78 435.395 1016.92C434.197 1017.69 432.852 1018.06 431.521 1018.06V1018.06ZM456.335 1058.42C453.883 1058.42 451.498 1057.14 450.18 1054.87C446.379 1048.3 442.323 1041.52 438.127 1034.7C436.068 1031.36 437.111 1026.97 440.457 1024.91C443.796 1022.85 448.185 1023.9 450.243 1027.24C454.505 1034.17 458.627 1041.06 462.494 1047.74C464.463 1051.14 463.302 1055.49 459.903 1057.46C458.776 1058.11 457.547 1058.42 456.335 1058.42V1058.42ZM300.828 1376.92C297.212 1376.92 294.122 1374.17 293.765 1370.5C293.383 1366.58 296.245 1363.1 300.154 1362.72C307.836 1361.97 315.66 1361.12 323.553 1360.16C327.455 1359.7 331.002 1362.45 331.482 1366.36C331.961 1370.25 329.186 1373.81 325.287 1374.28C317.272 1375.27 309.334 1376.12 301.536 1376.88C301.297 1376.91 301.061 1376.92 300.828 1376.92V1376.92ZM253.78 1382.45C250.481 1382.45 247.525 1380.14 246.829 1376.78C246.031 1372.94 248.504 1369.16 252.351 1368.37C260.108 1366.77 268.265 1365.58 276.594 1364.83C280.486 1364.52 283.962 1367.37 284.312 1371.29C284.659 1375.19 281.77 1378.64 277.855 1379C270.071 1379.7 262.463 1380.81 255.239 1382.31C254.75 1382.4 254.261 1382.45 253.78 1382.45V1382.45ZM209.325 1398.31C206.79 1398.3 204.342 1396.94 203.06 1394.55C201.2 1391.1 202.497 1386.78 205.957 1384.93C213.113 1381.08 220.74 1377.72 228.623 1374.94C232.328 1373.64 236.389 1375.58 237.696 1379.29C239.003 1382.99 237.057 1387.06 233.35 1388.36C226.155 1390.9 219.206 1393.96 212.695 1397.46C211.62 1398.03 210.464 1398.31 209.325 1398.31V1398.31ZM172.012 1427.17C170.286 1427.17 168.558 1426.54 167.19 1425.28C164.308 1422.6 164.133 1418.1 166.802 1415.21C172.455 1409.11 178.617 1403.47 185.118 1398.44C188.226 1396.04 192.698 1396.61 195.097 1399.71C197.499 1402.82 196.929 1407.29 193.821 1409.7C187.941 1414.24 182.362 1419.35 177.244 1424.88C175.841 1426.4 173.929 1427.17 172.012 1427.17V1427.17ZM1662.16 1703.82C1660.24 1703.82 1658.31 1703.03 1656.91 1701.48C1654.26 1698.58 1654.48 1694.08 1657.39 1691.44C1663.06 1686.29 1668.61 1680.84 1673.9 1675.23C1676.61 1672.38 1681.1 1672.26 1683.97 1674.95C1686.82 1677.65 1686.94 1682.16 1684.25 1685.01C1678.71 1690.87 1672.89 1696.58 1666.96 1701.97C1665.59 1703.21 1663.88 1703.82 1662.16 1703.82V1703.82ZM1624.78 1732.83C1622.46 1732.83 1620.19 1731.7 1618.83 1729.64C1616.68 1726.35 1617.58 1721.94 1620.86 1719.77C1627.26 1715.57 1633.59 1711.04 1639.68 1706.31C1642.77 1703.9 1647.25 1704.47 1649.66 1707.58C1652.07 1710.69 1651.5 1715.15 1648.4 1717.56C1642.02 1722.5 1635.38 1727.26 1628.69 1731.66C1627.47 1732.46 1626.12 1732.83 1624.78 1732.83V1732.83ZM1237.41 1749.21C1236.52 1749.21 1235.62 1749.03 1234.74 1748.69C1227.33 1745.68 1219.91 1742.45 1212.69 1739.11C1209.12 1737.47 1207.57 1733.24 1209.22 1729.68C1210.86 1726.11 1215.09 1724.56 1218.66 1726.2C1225.67 1729.43 1232.89 1732.58 1240.1 1735.51C1243.74 1736.99 1245.49 1741.14 1244.01 1744.78C1242.89 1747.54 1240.22 1749.21 1237.41 1749.21V1749.21ZM1583.36 1755.74C1580.67 1755.74 1578.1 1754.2 1576.9 1751.59C1575.27 1748.02 1576.83 1743.8 1580.41 1742.16C1587.44 1738.94 1594.39 1735.43 1601.06 1731.75C1604.49 1729.85 1608.82 1731.09 1610.72 1734.52C1612.62 1737.96 1611.38 1742.29 1607.94 1744.2C1600.96 1748.05 1593.67 1751.73 1586.32 1755.09C1585.36 1755.53 1584.35 1755.74 1583.36 1755.74V1755.74ZM1282.08 1765.06C1281.39 1765.06 1280.69 1764.97 1280 1764.75C1272.38 1762.42 1264.71 1759.89 1257.19 1757.22C1253.49 1755.91 1251.55 1751.84 1252.87 1748.15C1254.18 1744.44 1258.26 1742.5 1261.95 1743.81C1269.27 1746.42 1276.74 1748.88 1284.16 1751.16C1287.92 1752.3 1290.03 1756.27 1288.88 1760.03C1287.95 1763.1 1285.13 1765.07 1282.08 1765.06V1765.06ZM1539.01 1772.29C1535.94 1772.28 1533.11 1770.28 1532.2 1767.17C1531.09 1763.41 1533.25 1759.45 1537.01 1758.34C1544.47 1756.15 1551.87 1753.69 1559.01 1751.03C1562.68 1749.66 1566.79 1751.52 1568.16 1755.22C1569.53 1758.9 1567.66 1762.99 1563.98 1764.36C1556.54 1767.13 1548.81 1769.7 1541.04 1772C1540.36 1772.2 1539.68 1772.29 1539.01 1772.29ZM1327.98 1776.89C1327.5 1776.89 1327.01 1776.85 1326.52 1776.74C1318.69 1775.09 1310.82 1773.24 1303.13 1771.26C1299.32 1770.28 1297.03 1766.4 1298.01 1762.6C1298.99 1758.8 1302.85 1756.5 1306.68 1757.49C1314.17 1759.42 1321.83 1761.22 1329.45 1762.81C1333.29 1763.62 1335.75 1767.41 1334.94 1771.24C1334.24 1774.59 1331.28 1776.89 1327.98 1776.89ZM1492.8 1782.63C1489.36 1782.63 1486.35 1780.13 1485.79 1776.64C1485.18 1772.76 1487.83 1769.11 1491.71 1768.5C1499.4 1767.28 1507.08 1765.82 1514.54 1764.15C1518.38 1763.32 1522.18 1765.71 1523.04 1769.55C1523.89 1773.38 1521.48 1777.17 1517.64 1778.04C1509.89 1779.77 1501.91 1781.3 1493.93 1782.55C1493.54 1782.61 1493.17 1782.63 1492.8 1782.63ZM1374.72 1784.48C1374.45 1784.48 1374.17 1784.46 1373.9 1784.44C1366.02 1783.53 1358.01 1782.42 1350.11 1781.13C1346.24 1780.5 1343.6 1776.85 1344.24 1772.98C1344.87 1769.1 1348.51 1766.43 1352.4 1767.09C1360.08 1768.34 1367.87 1769.43 1375.53 1770.31C1379.44 1770.75 1382.23 1774.29 1381.78 1778.18C1381.36 1781.82 1378.28 1784.48 1374.72 1784.48V1784.48ZM1445.67 1787.24C1441.87 1787.24 1438.73 1784.23 1438.57 1780.41C1438.42 1776.47 1441.48 1773.17 1445.4 1773.02C1453.21 1772.71 1461.02 1772.17 1468.62 1771.43C1472.54 1771.09 1476.02 1773.91 1476.4 1777.83C1476.79 1781.73 1473.91 1785.21 1470.01 1785.59C1462.14 1786.36 1454.05 1786.91 1445.97 1787.23C1445.87 1787.24 1445.77 1787.24 1445.67 1787.24V1787.24ZM1421.98 1787.55C1421.95 1787.55 1421.93 1787.55 1421.89 1787.55C1413.97 1787.43 1405.87 1787.12 1397.85 1786.59C1393.93 1786.34 1390.96 1782.95 1391.22 1779.03C1391.46 1775.11 1395.01 1772.17 1398.77 1772.4C1406.56 1772.9 1414.4 1773.22 1422.08 1773.31C1426.01 1773.37 1429.15 1776.6 1429.09 1780.53C1429.05 1784.42 1425.87 1787.55 1421.98 1787.55" fill="#B2D5E7"/>
<path d="M347.883 1371.06C344.448 1371.05 341.43 1368.56 340.873 1365.05C340.258 1361.17 342.905 1357.53 346.788 1356.91C354.837 1355.64 362.581 1354.23 369.809 1352.75C373.657 1351.95 377.416 1354.44 378.21 1358.28C379.001 1362.13 376.526 1365.89 372.677 1366.69C365.239 1368.21 357.276 1369.65 349.012 1370.96C348.632 1371.03 348.255 1371.06 347.883 1371.06Z" fill="white"/>
<path d="M394.308 1361.41C391.172 1361.4 388.301 1359.3 387.451 1356.13C386.43 1352.34 388.682 1348.44 392.476 1347.42C400.235 1345.33 407.681 1343.05 414.611 1340.6C418.322 1339.3 422.38 1341.25 423.683 1344.96C424.988 1348.65 423.039 1352.72 419.334 1354.02C412.063 1356.59 404.268 1358.98 396.165 1361.15C395.545 1361.33 394.921 1361.41 394.308 1361.41" fill="white"/>
<path d="M438.91 1345.5C436.241 1345.5 433.684 1343.99 432.473 1341.41C430.806 1337.85 432.337 1333.62 435.893 1331.94C443.051 1328.59 449.764 1324.91 455.848 1321.02C459.167 1318.9 463.562 1319.88 465.672 1323.18C467.789 1326.49 466.821 1330.89 463.511 1333.01C456.91 1337.23 449.649 1341.2 441.937 1344.82C440.959 1345.29 439.925 1345.5 438.91 1345.5Z" fill="white"/>
<path d="M478.505 1319.83C476.569 1319.83 474.643 1319.04 473.242 1317.49C470.603 1314.58 470.822 1310.08 473.733 1307.44C479.352 1302.35 484.362 1296.82 488.613 1291C490.938 1287.83 495.387 1287.15 498.556 1289.46C501.725 1291.78 502.417 1296.23 500.099 1299.4C495.276 1305.99 489.622 1312.25 483.29 1317.99C481.926 1319.22 480.212 1319.83 478.505 1319.83" fill="white"/>
<path d="M506.108 1281.86C505.16 1281.86 504.197 1281.67 503.271 1281.27C499.673 1279.69 498.029 1275.5 499.603 1271.9C502.491 1265.29 504.74 1258.19 506.281 1250.8C507.082 1246.95 510.839 1244.47 514.698 1245.29C518.544 1246.1 521.012 1249.86 520.209 1253.71C518.467 1262.05 515.919 1270.09 512.638 1277.6C511.471 1280.27 508.852 1281.87 506.108 1281.86" fill="white"/>
<path d="M515.969 1235.91C515.896 1235.91 515.821 1235.91 515.749 1235.91C511.821 1235.78 508.738 1232.5 508.862 1228.57C508.91 1227.05 508.937 1225.5 508.939 1223.94C508.946 1218.14 508.62 1212.07 507.969 1205.9C507.56 1201.99 510.393 1198.49 514.301 1198.08C518.208 1197.67 521.71 1200.5 522.12 1204.41C522.823 1211.08 523.173 1217.66 523.166 1223.96C523.164 1225.66 523.137 1227.35 523.084 1229.02C522.962 1232.88 519.797 1235.92 515.969 1235.91" fill="white"/>
<path d="M511.25 1188.9C507.972 1188.9 505.024 1186.61 504.31 1183.27C502.772 1176.09 500.816 1168.57 498.504 1160.93C497.364 1157.17 499.49 1153.2 503.25 1152.06C507.018 1150.91 510.98 1153.05 512.119 1156.81C514.548 1164.83 516.6 1172.73 518.222 1180.29C519.044 1184.14 516.598 1187.92 512.756 1188.74C512.25 1188.85 511.745 1188.9 511.25 1188.9" fill="white"/>
<path d="M497.674 1143.56C494.798 1143.56 492.093 1141.8 491.022 1138.95C488.387 1131.95 485.425 1124.69 482.219 1117.37C480.642 1113.77 482.279 1109.58 485.878 1108C489.498 1106.42 493.676 1108.07 495.25 1111.66C498.557 1119.21 501.616 1126.7 504.338 1133.94C505.721 1137.62 503.861 1141.72 500.185 1143.1C499.358 1143.42 498.508 1143.56 497.674 1143.56" fill="white"/>
<path d="M478.738 1100.16C476.116 1100.16 473.592 1098.7 472.359 1096.18C469.021 1089.39 465.413 1082.38 461.629 1075.36C459.768 1071.9 461.063 1067.59 464.522 1065.72C467.984 1063.85 472.297 1065.16 474.156 1068.61C478.022 1075.8 481.715 1082.96 485.127 1089.91C486.861 1093.43 485.407 1097.69 481.879 1099.43C480.868 1099.93 479.794 1100.16 478.738 1100.16Z" fill="white"/>
<path d="M1194.39 1729.32C1193.28 1729.32 1192.16 1729.05 1191.1 1728.5C1183.94 1724.76 1176.85 1720.83 1170.05 1716.81C1166.67 1714.82 1165.55 1710.44 1167.55 1707.07C1169.55 1703.69 1173.91 1702.56 1177.29 1704.56C1183.87 1708.45 1190.74 1712.26 1197.7 1715.89C1201.18 1717.71 1202.52 1722.01 1200.7 1725.5C1199.44 1727.92 1196.95 1729.32 1194.39 1729.32Z" fill="white"/>
<path d="M1153.59 1705.18C1152.23 1705.17 1150.86 1704.79 1149.65 1703.97C1142.82 1699.39 1136.21 1694.65 1130.01 1689.89C1126.9 1687.5 1126.31 1683.04 1128.7 1679.92C1131.1 1676.8 1135.56 1676.22 1138.68 1678.61C1144.64 1683.18 1150.99 1687.73 1157.57 1692.15C1160.83 1694.34 1161.7 1698.76 1159.52 1702.02C1158.14 1704.07 1155.89 1705.18 1153.59 1705.18Z" fill="white"/>
<path d="M1116.05 1676.28C1114.37 1676.28 1112.68 1675.69 1111.33 1674.47C1105.1 1668.9 1099.23 1663.2 1093.89 1657.52C1091.21 1654.65 1091.35 1650.15 1094.21 1647.46C1097.07 1644.77 1101.57 1644.91 1104.27 1647.78C1109.32 1653.16 1114.89 1658.57 1120.81 1663.86C1123.74 1666.47 1123.99 1670.97 1121.37 1673.91C1119.96 1675.48 1118.01 1676.28 1116.05 1676.28" fill="white"/>
<path d="M1083.81 1641.67C1081.65 1641.66 1079.51 1640.69 1078.12 1638.82C1072.97 1631.96 1068.45 1624.98 1064.7 1618.1C1062.81 1614.65 1064.08 1610.34 1067.53 1608.45C1070.98 1606.57 1075.3 1607.83 1077.18 1611.28C1080.62 1617.57 1084.76 1623.96 1089.5 1630.29C1091.85 1633.42 1091.22 1637.87 1088.08 1640.23C1086.8 1641.2 1085.3 1641.67 1083.81 1641.67" fill="white"/>
<path d="M1061.55 1600.11C1058.54 1600.1 1055.74 1598.18 1054.78 1595.15C1052.12 1586.75 1050.55 1578.36 1050.13 1570.2C1049.93 1566.27 1052.95 1562.92 1056.87 1562.71C1060.87 1562.57 1064.14 1565.54 1064.34 1569.46C1064.7 1576.42 1066.04 1583.6 1068.34 1590.85C1069.53 1594.6 1067.46 1598.59 1063.72 1599.78C1062.99 1600 1062.27 1600.11 1061.55 1600.11" fill="white"/>
<path d="M1059.55 1553.48C1058.96 1553.48 1058.37 1553.41 1057.77 1553.25C1053.97 1552.27 1051.69 1548.37 1052.67 1544.58C1054.78 1536.44 1058.16 1528.5 1062.73 1520.97C1064.76 1517.62 1069.15 1516.54 1072.5 1518.59C1075.86 1520.62 1076.93 1525 1074.89 1528.35C1071.04 1534.69 1068.2 1541.35 1066.44 1548.14C1065.61 1551.35 1062.72 1553.48 1059.55 1553.48" fill="white"/>
<path d="M1083.43 1513.23C1081.62 1513.22 1079.82 1512.54 1078.44 1511.18C1075.64 1508.42 1075.61 1503.91 1078.37 1501.11C1083.9 1495.52 1090.27 1490.11 1097.33 1485.05C1100.53 1482.75 1104.97 1483.49 1107.26 1486.67C1109.55 1489.87 1108.82 1494.31 1105.63 1496.6C1099.22 1501.2 1093.46 1506.09 1088.49 1511.11C1087.1 1512.52 1085.26 1513.23 1083.43 1513.23Z" fill="white"/>
<path d="M1121.55 1485.4C1119.04 1485.4 1116.61 1484.06 1115.31 1481.7C1113.43 1478.26 1114.7 1473.93 1118.14 1472.04C1124.9 1468.35 1132.26 1464.78 1140.03 1461.41C1143.65 1459.86 1147.83 1461.52 1149.38 1465.12C1150.94 1468.73 1149.29 1472.92 1145.68 1474.47C1138.31 1477.66 1131.34 1481.04 1124.97 1484.53C1123.88 1485.13 1122.71 1485.41 1121.55 1485.4" fill="white"/>
<path d="M1164.92 1466.46C1161.98 1466.45 1159.24 1464.62 1158.21 1461.7C1156.91 1457.99 1158.86 1453.93 1162.56 1452.63C1169.82 1450.09 1177.53 1447.63 1185.51 1445.32C1189.28 1444.22 1193.23 1446.4 1194.32 1450.17C1195.41 1453.94 1193.24 1457.89 1189.47 1458.98C1181.74 1461.22 1174.28 1463.6 1167.28 1466.06C1166.5 1466.32 1165.7 1466.46 1164.92 1466.46" fill="white"/>
<path d="M1210.29 1452.88C1207.22 1452.88 1204.38 1450.88 1203.48 1447.77C1202.37 1444.01 1204.54 1440.05 1208.31 1438.95C1215.64 1436.8 1223.16 1434.42 1230.63 1431.89C1234.35 1430.63 1238.39 1432.62 1239.65 1436.34C1240.91 1440.08 1238.91 1444.1 1235.19 1445.37C1227.54 1447.96 1219.83 1450.4 1212.3 1452.61C1211.63 1452.79 1210.96 1452.88 1210.29 1452.88Z" fill="white"/>
<path d="M1255.23 1437.7C1252.37 1437.69 1249.67 1435.96 1248.59 1433.11C1247.19 1429.46 1249.02 1425.34 1252.69 1423.93C1259.88 1421.18 1267.2 1418.22 1274.43 1415.13C1278.07 1413.59 1282.23 1415.27 1283.77 1418.88C1285.31 1422.49 1283.63 1426.66 1280.02 1428.21C1272.62 1431.37 1265.14 1434.4 1257.78 1437.22C1256.94 1437.54 1256.08 1437.7 1255.23 1437.7" fill="white"/>
<path d="M1298.85 1419.07C1296.19 1419.06 1293.63 1417.57 1292.42 1414.99C1290.75 1411.45 1292.27 1407.21 1295.82 1405.53C1302.9 1402.18 1309.97 1398.69 1316.84 1395.14C1320.31 1393.33 1324.62 1394.71 1326.42 1398.21C1328.23 1401.69 1326.86 1405.98 1323.37 1407.79C1316.35 1411.41 1309.12 1414.97 1301.89 1418.39C1300.91 1418.86 1299.87 1419.07 1298.85 1419.07" fill="white"/>
<path d="M1340.94 1397.34C1338.47 1397.34 1336.04 1396.05 1334.75 1393.72C1332.82 1390.3 1334.03 1385.96 1337.45 1384.03C1344.29 1380.18 1351.09 1376.18 1357.67 1372.15C1361 1370.09 1365.39 1371.15 1367.46 1374.5C1369.51 1377.85 1368.45 1382.22 1365.1 1384.27C1358.37 1388.39 1351.42 1392.49 1344.44 1396.43C1343.34 1397.05 1342.12 1397.35 1340.94 1397.34" fill="white"/>
<path d="M1381.35 1372.55C1379.06 1372.55 1376.81 1371.44 1375.44 1369.39C1373.25 1366.12 1374.14 1361.69 1377.41 1359.51C1383.93 1355.16 1390.4 1350.66 1396.62 1346.13C1399.8 1343.84 1404.25 1344.53 1406.57 1347.72C1408.87 1350.89 1408.17 1355.34 1404.98 1357.65C1398.6 1362.28 1391.99 1366.89 1385.3 1371.36C1384.09 1372.16 1382.71 1372.55 1381.35 1372.55" fill="white"/>
<path d="M1419.68 1344.67C1417.59 1344.66 1415.52 1343.75 1414.11 1341.98C1411.67 1338.91 1412.18 1334.43 1415.25 1331.98C1421.43 1327.09 1427.47 1322.05 1433.22 1317.03C1436.18 1314.44 1440.69 1314.75 1443.26 1317.71C1445.84 1320.66 1445.54 1325.16 1442.58 1327.74C1436.67 1332.92 1430.45 1338.09 1424.11 1343.12C1422.8 1344.16 1421.24 1344.67 1419.68 1344.67" fill="white"/>
<path d="M1455.34 1313.45C1453.49 1313.45 1451.64 1312.73 1450.24 1311.29C1447.51 1308.47 1447.58 1303.96 1450.4 1301.23C1456.06 1295.75 1461.53 1290.14 1466.64 1284.55C1469.3 1281.65 1473.81 1281.47 1476.7 1284.12C1479.59 1286.77 1479.78 1291.27 1477.14 1294.17C1471.83 1299.96 1466.17 1305.77 1460.31 1311.45C1458.92 1312.79 1457.13 1313.46 1455.34 1313.45Z" fill="white"/>
<path d="M1487.29 1278.47C1485.74 1278.47 1484.18 1277.96 1482.88 1276.92C1479.8 1274.48 1479.3 1270 1481.74 1266.93C1486.67 1260.72 1491.27 1254.45 1495.39 1248.29C1497.57 1245.02 1502 1244.15 1505.26 1246.33C1508.53 1248.51 1509.4 1252.93 1507.22 1256.2C1502.88 1262.69 1498.06 1269.28 1492.88 1275.79C1491.47 1277.55 1489.38 1278.47 1487.29 1278.47Z" fill="white"/>
<path d="M1513.46 1239.04C1512.34 1239.04 1511.2 1238.78 1510.15 1238.22C1506.67 1236.38 1505.35 1232.07 1507.19 1228.61C1510.88 1221.63 1514.02 1214.66 1516.53 1207.88C1517.9 1204.2 1522.01 1202.33 1525.67 1203.68C1529.35 1205.05 1531.24 1209.14 1529.88 1212.83C1527.15 1220.19 1523.74 1227.74 1519.77 1235.25C1518.49 1237.67 1516.02 1239.05 1513.46 1239.04" fill="white"/>
<path d="M1529.62 1194.71C1529.18 1194.71 1528.74 1194.67 1528.28 1194.58C1524.43 1193.85 1521.9 1190.13 1522.63 1186.27C1523.88 1179.65 1524.52 1173.09 1524.53 1166.78C1524.53 1165.93 1524.52 1165.09 1524.49 1164.25C1524.4 1160.32 1527.5 1157.06 1531.44 1156.96C1535.13 1156.88 1538.62 1159.97 1538.72 1163.9C1538.75 1164.86 1538.76 1165.82 1538.76 1166.79C1538.75 1173.99 1538.02 1181.43 1536.61 1188.92C1535.95 1192.34 1532.96 1194.72 1529.62 1194.71" fill="white"/>
<path d="M1528.15 1147.83C1525.05 1147.83 1522.18 1145.77 1521.31 1142.63C1519.37 1135.68 1516.52 1128.9 1512.85 1122.47C1510.89 1119.06 1512.07 1114.71 1515.49 1112.76C1518.89 1110.82 1523.25 1111.99 1525.19 1115.4C1529.46 1122.86 1532.76 1130.73 1535.02 1138.8C1536.07 1142.59 1533.85 1146.51 1530.07 1147.57C1529.43 1147.75 1528.78 1147.83 1528.15 1147.83" fill="white"/>
<path d="M1505.09 1106.95C1503.15 1106.95 1501.22 1106.15 1499.82 1104.6C1495.05 1099.3 1489.51 1094.15 1483.38 1089.29C1480.31 1086.85 1479.79 1082.38 1482.22 1079.3C1484.66 1076.22 1489.15 1075.7 1492.22 1078.14C1498.98 1083.49 1505.09 1089.19 1510.39 1095.07C1513.03 1098 1512.78 1102.49 1509.86 1105.12C1508.5 1106.35 1506.79 1106.95 1505.09 1106.95Z" fill="white"/>
<path d="M1468.29 1077.41C1467.05 1077.41 1465.78 1077.08 1464.64 1076.39C1458.39 1072.63 1451.57 1068.98 1444.37 1065.56C1440.83 1063.87 1439.32 1059.63 1441.01 1056.08C1442.69 1052.53 1446.95 1051.04 1450.48 1052.71C1458.1 1056.33 1465.34 1060.2 1471.99 1064.2C1475.34 1066.23 1476.43 1070.6 1474.4 1073.97C1473.06 1076.18 1470.7 1077.41 1468.29 1077.41" fill="white"/>
<path d="M1425.65 1056.95C1424.79 1056.94 1423.94 1056.79 1423.1 1056.47C1416.17 1053.8 1408.79 1051.23 1401.15 1048.82C1397.41 1047.64 1395.32 1043.64 1396.51 1039.89C1397.69 1036.15 1401.66 1034.06 1405.43 1035.25C1413.34 1037.75 1421 1040.42 1428.21 1043.19C1431.88 1044.6 1433.71 1048.72 1432.29 1052.38C1431.21 1055.21 1428.5 1056.95 1425.65 1056.95Z" fill="white"/>
<path d="M1380.53 1042.61C1379.93 1042.61 1379.33 1042.53 1378.74 1042.37L1373.72 1041.09C1367.62 1039.56 1361.62 1037.99 1355.73 1036.37C1351.94 1035.33 1349.7 1031.41 1350.75 1027.62C1351.78 1023.84 1355.69 1021.6 1359.49 1022.65C1365.29 1024.24 1371.18 1025.79 1377.18 1027.29C1378.91 1027.72 1380.62 1028.16 1382.32 1028.61C1386.12 1029.59 1388.41 1033.48 1387.42 1037.28C1386.59 1040.49 1383.69 1042.61 1380.53 1042.61Z" fill="white"/>
<path d="M1334.86 1030C1334.16 1030 1333.46 1029.9 1332.76 1029.68C1325.05 1027.3 1317.39 1024.8 1310.01 1022.24C1306.3 1020.96 1304.33 1016.91 1305.62 1013.19C1306.9 1009.48 1310.95 1007.51 1314.67 1008.8C1321.9 1011.3 1329.4 1013.75 1336.96 1016.08C1340.71 1017.24 1342.81 1021.22 1341.66 1024.98C1340.72 1028.04 1337.89 1030 1334.86 1030" fill="white"/>
<path d="M1290.09 1014.46C1289.24 1014.46 1288.36 1014.3 1287.51 1013.97C1279.92 1011.01 1272.46 1007.91 1265.35 1004.77C1261.75 1003.19 1260.12 998.984 1261.71 995.393C1263.3 991.799 1267.48 990.16 1271.1 991.757C1278.01 994.815 1285.28 997.83 1292.69 1000.72C1296.35 1002.15 1298.16 1006.27 1296.73 1009.93C1295.63 1012.75 1292.94 1014.46 1290.09 1014.46Z" fill="white"/>
<path d="M1246.77 995.286C1245.7 995.284 1244.61 995.039 1243.59 994.523C1236.25 990.833 1229.12 986.981 1222.38 983.075C1218.98 981.105 1217.82 976.753 1219.79 973.354C1221.75 969.949 1226.11 968.795 1229.51 970.764C1236.01 974.53 1242.9 978.248 1249.98 981.814C1253.49 983.583 1254.9 987.859 1253.14 991.368C1251.89 993.853 1249.37 995.289 1246.77 995.286" fill="white"/>
<path d="M1205.85 971.464C1204.48 971.462 1203.09 971.067 1201.88 970.239C1194.98 965.561 1188.41 960.698 1182.35 955.781C1179.3 953.304 1178.83 948.826 1181.31 945.776C1183.79 942.717 1188.27 942.26 1191.32 944.737C1197.06 949.396 1203.29 954.014 1209.86 958.46C1213.11 960.664 1213.96 965.089 1211.76 968.34C1210.38 970.373 1208.14 971.466 1205.85 971.464Z" fill="white"/>
<path d="M1169.26 941.512C1167.43 941.51 1165.6 940.807 1164.21 939.404C1158.2 933.33 1152.77 927.057 1148.08 920.76C1145.73 917.61 1146.38 913.153 1149.53 910.803C1152.67 908.459 1157.14 909.108 1159.48 912.255C1163.78 918.024 1168.78 923.79 1174.32 929.394C1177.09 932.186 1177.06 936.688 1174.27 939.453C1172.88 940.829 1171.07 941.514 1169.26 941.512" fill="white"/>
<path d="M1141.33 903.518C1138.72 903.514 1136.2 902.062 1134.96 899.557C1131.1 891.756 1128.21 883.77 1126.35 875.825C1125.46 871.999 1127.83 868.174 1131.66 867.279C1135.5 866.385 1139.31 868.763 1140.2 872.59C1141.81 879.474 1144.34 886.425 1147.72 893.247C1149.46 896.767 1148.02 901.036 1144.49 902.779C1143.48 903.28 1142.4 903.519 1141.33 903.518" fill="white"/>
<path d="M1130.97 857.845C1130.88 857.845 1130.8 857.842 1130.71 857.84C1126.78 857.694 1123.72 854.395 1123.86 850.467C1124.17 842.064 1125.63 833.616 1128.18 825.357C1129.34 821.606 1133.32 819.495 1137.08 820.665C1140.83 821.826 1142.94 825.81 1141.78 829.563C1139.59 836.629 1138.34 843.838 1138.08 850.994C1137.94 854.834 1134.78 857.85 1130.97 857.845Z" fill="white"/>
<path d="M1144.52 812.959C1143.31 812.957 1142.09 812.65 1140.97 812.001C1137.57 810.033 1136.41 805.68 1138.38 802.281C1142.36 795.396 1147.2 788.556 1152.76 781.955C1155.28 778.947 1159.77 778.561 1162.78 781.091C1165.78 783.621 1166.17 788.11 1163.64 791.115C1158.62 797.085 1154.26 803.241 1150.69 809.409C1149.37 811.688 1146.97 812.961 1144.52 812.959" fill="white"/>
<path d="M1174.66 776.645C1172.73 776.643 1170.8 775.858 1169.4 774.315C1166.76 771.406 1166.98 766.908 1169.89 764.266C1175.65 759.028 1182.02 753.839 1188.82 748.843C1191.98 746.52 1196.43 747.19 1198.77 750.363C1201.09 753.529 1200.41 757.981 1197.24 760.307C1190.84 765.014 1184.86 769.889 1179.45 774.796C1178.09 776.037 1176.37 776.647 1174.66 776.645" fill="white"/>
<path d="M1212.69 748.485C1210.31 748.482 1207.98 747.279 1206.64 745.099C1204.57 741.755 1205.62 737.372 1208.96 735.314C1212.5 733.137 1216.15 730.982 1219.92 728.851C1223.09 727.059 1226.2 725.19 1229.25 723.258C1232.56 721.163 1236.96 722.143 1239.07 725.466C1241.16 728.787 1240.18 733.18 1236.86 735.282C1233.61 737.339 1230.3 739.322 1226.93 741.233C1223.31 743.278 1219.81 745.344 1216.43 747.428C1215.26 748.148 1213.97 748.486 1212.69 748.485" fill="white"/>
<path d="M1252.39 722.71C1250.29 722.707 1248.2 721.777 1246.8 719.994C1244.37 716.904 1244.91 712.434 1248 710.003C1253.96 705.314 1259.78 700.242 1265.3 694.928C1268.13 692.203 1272.64 692.287 1275.36 695.116C1278.08 697.947 1278 702.448 1275.17 705.174C1269.31 710.818 1263.13 716.206 1256.79 721.19C1255.48 722.216 1253.93 722.711 1252.39 722.71" fill="white"/>
<path d="M1286.45 689.929C1284.81 689.927 1283.18 689.37 1281.85 688.229C1278.86 685.681 1278.49 681.19 1281.04 678.201C1285.98 672.408 1290.72 666.29 1295.11 660.01C1297.37 656.787 1301.8 656.008 1305.02 658.264C1308.24 660.516 1309.02 664.952 1306.77 668.17C1302.11 674.818 1297.1 681.299 1291.87 687.431C1290.46 689.084 1288.46 689.931 1286.45 689.929" fill="white"/>
<path d="M1313.58 651.194C1312.39 651.193 1311.18 650.893 1310.07 650.262C1306.66 648.322 1305.46 643.978 1307.41 640.563C1311.18 633.922 1314.68 627.02 1317.82 620.05C1319.43 616.465 1323.65 614.87 1327.23 616.488C1330.81 618.092 1332.41 622.307 1330.79 625.892C1327.47 633.275 1323.76 640.57 1319.77 647.594C1318.46 649.901 1316.05 651.197 1313.58 651.194" fill="white"/>
<path d="M1375.6 910.434C1307.36 910.352 1251.78 965.804 1251.69 1034.04C1251.61 1102.29 1307.06 1157.87 1375.3 1157.95C1443.55 1158.03 1499.13 1102.58 1499.21 1034.34C1499.29 966.098 1443.85 910.515 1375.6 910.434ZM1375.28 1172.18C1299.2 1172.09 1237.38 1110.11 1237.47 1034.03C1237.56 957.943 1299.53 896.115 1375.61 896.206C1451.71 896.296 1513.53 958.271 1513.43 1034.36C1513.34 1110.44 1451.38 1172.27 1375.28 1172.18" fill="#B2D5E7"/>
<path d="M1704.17 1526.54C1635.93 1526.46 1580.34 1581.91 1580.26 1650.15C1580.18 1718.39 1635.63 1773.98 1703.87 1774.06C1772.11 1774.14 1827.7 1718.68 1827.78 1650.44C1827.86 1582.2 1772.41 1526.62 1704.17 1526.54V1526.54ZM1703.86 1788.28C1627.76 1788.19 1565.94 1726.21 1566.04 1650.13C1566.13 1574.05 1628.09 1512.22 1704.19 1512.31C1780.27 1512.4 1842.1 1574.38 1842.01 1650.46C1841.92 1726.54 1779.94 1788.37 1703.86 1788.28Z" fill="#B2D5E7"/>
<path d="M1162.43 281.998C1120.24 281.948 1085.88 316.227 1085.83 358.414C1085.78 400.6 1120.06 434.961 1162.24 435.011C1204.43 435.062 1238.79 400.782 1238.85 358.596C1238.9 316.409 1204.62 282.048 1162.43 281.998ZM1162.23 443.811C1115.2 443.755 1076.98 405.443 1077.03 358.403C1077.09 311.363 1115.4 273.142 1162.44 273.198C1209.47 273.254 1247.7 311.566 1247.64 358.606C1247.58 405.646 1209.27 443.867 1162.23 443.811Z" fill="#B2D5E7"/>
<path d="M1264.9 1449.47C1264.86 1486.76 1234.6 1516.94 1197.32 1516.89C1160.04 1516.85 1129.85 1486.6 1129.89 1449.31C1129.94 1412.03 1160.2 1381.85 1197.48 1381.89C1234.76 1381.94 1264.95 1412.19 1264.9 1449.47Z" fill="white"/>
<path d="M1197.49 1372.88C1155.3 1372.83 1120.94 1407.11 1120.89 1449.3C1120.84 1491.48 1155.12 1525.86 1197.31 1525.91C1239.5 1525.96 1273.86 1491.66 1273.91 1449.48C1273.96 1407.29 1239.68 1372.93 1197.49 1372.88ZM1197.3 1534.69C1150.26 1534.64 1112.04 1496.33 1112.1 1449.29C1112.15 1402.26 1150.46 1364.04 1197.5 1364.09C1244.54 1364.15 1282.76 1402.46 1282.7 1449.49C1282.65 1496.53 1244.33 1534.75 1197.3 1534.69" fill="#B2D5E7"/>
<path d="M1237.67 1449.44C1237.64 1471.68 1219.59 1489.68 1197.35 1489.65C1175.11 1489.63 1157.1 1471.58 1157.13 1449.34C1157.16 1427.11 1175.21 1409.09 1197.45 1409.12C1219.68 1409.15 1237.69 1427.21 1237.67 1449.44Z" fill="#E41D25"/>
<path d="M193.504 1539.33C193.459 1576.61 163.213 1606.77 125.937 1606.73C88.6606 1606.68 58.4386 1576.45 58.483 1539.17C58.5274 1501.85 88.8212 1471.67 126.097 1471.71C163.373 1471.76 193.548 1502.01 193.504 1539.33Z" fill="white"/>
<path d="M126.1 1462.71C83.9143 1462.66 49.5527 1496.94 49.5025 1539.13C49.4523 1581.33 83.7322 1615.69 125.918 1615.74C168.107 1615.79 202.468 1581.51 202.518 1539.31C202.569 1497.12 168.29 1462.76 126.1 1462.71V1462.71ZM125.908 1624.53C78.8712 1624.47 40.6506 1586.16 40.7066 1539.12C40.7626 1492.09 79.0742 1453.87 126.111 1453.93C173.147 1453.98 211.37 1492.29 211.314 1539.32C211.259 1586.36 172.944 1624.58 125.908 1624.53" fill="#B2D5E7"/>
<path d="M193.504 1539.33L58.483 1539.17C58.5274 1501.85 88.8212 1471.67 126.097 1471.71C163.373 1471.76 193.548 1502.01 193.504 1539.33Z" fill="#E41D25"/>
<path d="M644.199 107.622C602.013 107.571 567.651 141.851 567.6 184.037C567.55 226.224 601.831 260.585 644.017 260.635C686.205 260.685 720.567 226.406 720.618 184.219C720.668 142.033 686.387 107.672 644.199 107.622ZM644.007 269.422C596.97 269.366 558.75 231.053 558.806 184.027C558.862 136.987 597.173 98.7657 644.21 98.8216C691.246 98.8776 729.47 137.19 729.414 184.23C729.358 231.256 691.043 269.477 644.007 269.422Z" fill="#B2D5E7"/>
<path d="M371.867 776.97C289.443 776.872 222.306 843.849 222.208 926.276C222.11 1008.7 289.087 1075.84 371.511 1075.94C453.942 1076.04 521.079 1009.06 521.177 926.632C521.275 844.205 454.297 777.068 371.867 776.97V776.97ZM371.491 1093.12C279.589 1093.02 204.912 1018.16 205.021 926.256C205.131 834.356 279.986 759.675 371.887 759.785C463.789 759.894 538.47 834.752 538.361 926.652C538.252 1018.55 463.392 1093.23 371.491 1093.12" fill="#B2D5E7"/>
<path d="M503.584 926.612C503.67 853.77 444.69 794.649 371.846 794.562C299.005 794.475 239.883 853.456 239.796 926.298C239.709 999.142 298.691 1058.26 371.532 1058.35C444.376 1058.44 503.497 999.456 503.584 926.612Z" fill="#E41D25"/>
<path d="M363.807 993.503C326.769 993.459 296.785 963.404 296.829 926.366C296.873 889.341 326.929 859.357 363.966 859.401C383.459 859.424 401.006 867.77 413.228 881.07C398.305 857.824 372.241 842.403 342.554 842.367C296.133 842.312 258.456 879.899 258.401 926.32C258.346 972.742 295.933 1010.42 342.354 1010.47C372.017 1010.51 398.106 995.175 413.096 971.987C400.83 985.245 383.289 993.526 363.807 993.503" fill="white"/>
<path d="M485.008 902.325L456.567 911.251L438.862 887.27L438.562 917.078L410.284 926.505L438.539 936.001L438.769 965.81L456.531 941.871L484.951 950.865L467.673 926.574L485.008 902.325" fill="white"/>
<path d="M630.593 1952.38L350.633 1952.05C350.633 1952.05 310.645 1957.27 307.954 1880.02C307.954 1880.02 337.396 1817.11 405.656 1815.9C405.656 1815.9 477.266 1769.65 530.042 1794.18C530.042 1794.18 598.314 1857.89 619.043 1873.31C627.081 1879.31 635.357 1887.93 640.577 1898.04C648.814 1913.93 649.638 1933.47 630.593 1952.38Z" fill="#B2D5E7"/>
<path d="M630.593 1952.38L350.633 1952.05C350.633 1952.05 310.645 1957.27 307.954 1880.02C329.934 1911.89 366.228 1910.48 397.19 1916.12C428.151 1921.78 423.443 1888.59 423.443 1888.59L552.932 1873.23L564.587 1888.75L495.503 1896.78L497.136 1922.27C497.136 1922.27 559.342 1924.96 586.582 1907.69C606.95 1894.81 630.175 1896.41 640.577 1898.04C648.814 1913.93 649.638 1933.47 630.593 1952.38Z" fill="#95BDCD"/>
<path d="M413.127 1952.12L405.796 1708.21C405.796 1708.21 455.909 1869.85 458.859 1952.18L413.127 1952.12Z" fill="#53BC83"/>
<path d="M370.641 1952.07L366.39 1810.68C366.39 1810.68 395.439 1904.38 397.149 1952.1L370.641 1952.07Z" fill="#53BC83"/>
<path d="M317.58 1586.33C317.58 1586.33 384.19 1750.5 388.638 1952.09L423.798 1952.13C423.798 1952.13 377.254 1669.61 317.58 1586.33Z" fill="#53BC83"/>
<path d="M535.44 1648.91C535.44 1648.91 484.897 1848.54 496.969 1952.22L442.091 1952.16C442.091 1952.16 457.519 1798.2 535.44 1648.91Z" fill="#53BC83"/>
<path d="M389.83 1648.73C389.83 1648.73 364.44 1848.4 370.414 1952.07L342.975 1952.04C342.975 1952.04 350.781 1798.07 389.83 1648.73Z" fill="#53BC83"/>
<path d="M969.92 1952.78L966.099 1825.67C966.099 1825.67 992.213 1909.92 993.751 1952.81L969.92 1952.78" fill="#53BC83"/>
<path d="M920.131 1762.16C920.131 1762.16 954.84 1847.71 957.159 1952.77L975.48 1952.79C975.48 1952.79 951.226 1805.57 920.131 1762.16Z" fill="#53BC83"/>
<path d="M1033.66 1794.78C1033.66 1794.78 1007.32 1898.8 1013.61 1952.84L985.014 1952.8C985.014 1952.8 993.053 1872.57 1033.66 1794.78Z" fill="#53BC83"/>
<path d="M1484.57 1953.4L1492.56 1650.05C1492.56 1650.05 1442.01 1850.96 1438.83 1953.34L1484.57 1953.4Z" fill="#53BC83"/>
<path d="M1566.11 1587.81C1566.11 1587.81 1499.11 1751.83 1494.18 1953.41L1459.02 1953.37C1459.02 1953.37 1506.24 1670.95 1566.11 1587.81" fill="#53BC83"/>
<path d="M1405.2 1732.1C1405.2 1732.1 1441.71 1877.76 1432.73 1953.33L1472.74 1953.38C1472.74 1953.38 1461.75 1841.1 1405.2 1732.1Z" fill="#53BC83"/>
<path d="M1841.63 1968.82L57.9744 1966.7C53.8301 1966.69 50.4753 1963.33 50.4802 1959.18C50.4852 1955.05 53.848 1951.69 57.9922 1951.7L1841.65 1953.82C1845.79 1953.83 1849.14 1957.19 1849.13 1961.32C1849.13 1965.47 1845.78 1968.83 1841.63 1968.82Z" fill="#53BC83"/>
<path d="M981.351 534.023L932.257 996.326C860.577 1013.08 786.389 1025.13 696.774 1008.76C671.595 1004.17 652.982 982.478 651.97 956.914C646.17 809.271 653.36 665.106 676.528 525.327C680.063 504.224 696.35 487.497 717.364 483.536C718.646 483.31 719.926 483.072 721.208 482.887C726.9 481.8 732.591 480.86 738.236 480.014L738.283 480.014C808.438 469.284 874.216 471.495 936.804 482.903L966.692 502.792C977.013 509.671 982.662 521.705 981.351 534.023Z" fill="#53BC83"/>
<path d="M643.325 843.402C643.33 839.861 646.639 837.276 650.072 838.142C663.723 841.589 696.453 848.412 732.753 845.593C780.561 841.882 747.901 926.901 747.901 926.901L697.807 1016.43C697.807 1016.43 684.513 1013.77 668.458 1003.31C652.553 992.959 643.169 975.042 643.191 956.062L643.325 843.402" fill="#B2D5E7"/>
<path d="M710.848 499.328C693.643 530.321 691.65 769.63 691.487 788.553C698.458 789.177 706.235 789.472 713.349 788.959L713.675 793.701C710.924 793.887 708.127 793.979 705.281 793.976C687.591 793.955 669.715 790.376 668.815 790.186L669.77 785.539C669.911 785.586 677.118 787.019 686.744 788.073C686.916 764.027 688.854 529.182 706.725 497.043C709.861 491.407 714.895 486.719 721.208 482.887C726.9 481.8 732.591 480.86 738.236 480.014C725.947 484.452 715.696 490.6 710.848 499.328Z" fill="#38527D"/>
<path d="M1022.72 593.072L1116.59 737.827C1123.9 749.095 1118.2 765.665 1103.57 775.727C1087.94 786.473 1068.07 785.769 1059.59 774.168L949.746 626.372L995.308 589.88L1022.72 593.072" fill="#E1EDF9"/>
<path d="M969.206 514.862L978.945 517.593C990.316 520.914 999.498 529.338 1003.79 540.37L1024.48 593.608C1003.19 594.609 983.049 603.198 964.45 621.99L941.48 545.509L969.206 514.862Z" fill="#F03747"/>
<path d="M1282.8 809.899L1099.14 826.942C1096.17 827.217 1093.69 824.713 1093.98 821.744L1109.43 668.742C1109.66 666.402 1111.58 664.589 1113.93 664.481L1297.56 656.057C1300.46 655.923 1302.8 658.408 1302.5 661.297L1287.07 805.68C1286.83 807.927 1285.04 809.691 1282.8 809.899Z" fill="#EDC665"/>
<path d="M993.637 1305.24L993.298 1311.31L983.075 1493.55C982.686 1500.76 980.876 1507.88 977.691 1514.41L966.137 1538.39L923.127 1853.77L870.201 1852.57L864.694 1658.35C863.964 1633.12 867.789 1607.94 875.927 1584L888.967 1545.85C900.008 1513.51 902.752 1478.85 896.912 1445.16L879.25 1342.66L870.441 1291.62L993.637 1305.24Z" fill="#FBCD9E"/>
<path d="M865.539 1880.69L924.115 1880.76L1026.75 1922.72L1026.73 1937.21C1026.72 1945.85 1019.71 1952.84 1011.07 1952.83L874.567 1952.67C859.899 1952.65 849.293 1938.64 853.252 1924.53L865.539 1880.69Z" fill="#21344E"/>
<path d="M924.115 1880.76L932.44 1840.69C933.136 1836.06 929.555 1831.9 924.876 1831.89L872.064 1831.83C867.585 1831.82 864.057 1835.64 864.421 1840.11L865.539 1880.69L924.115 1880.76" fill="#E1EDF9"/>
<path d="M993.637 1305.24L993.298 1311.31C966.881 1313.46 899.907 1320.92 879.25 1342.66L870.441 1291.62L993.637 1305.24Z" fill="#F78D77"/>
<path d="M1004.15 1303.97C1004.15 1303.97 935.319 1313.42 875.425 1309.55C871.49 1309.26 867.647 1308.97 863.808 1308.59L837.801 1163.44L828.943 1114.1L841.008 938.786L964.823 950.457L1004.15 1303.97" fill="#38527D"/>
<path d="M841.966 1309.13L839.279 1334.98L818.123 1538.18L816.122 1625.39L786.071 1850.67L737.792 1849.57L727.55 1648.32L746.201 1478.9L722.967 1355.14L710.43 1288.49L841.966 1309.13" fill="#FBCD9E"/>
<path d="M729.671 1880.52L788.247 1880.59L890.879 1922.56L890.861 1937.05C890.851 1945.69 883.842 1952.68 875.206 1952.67L738.699 1952.51C724.031 1952.49 713.425 1938.48 717.384 1924.36L729.671 1880.52" fill="#21344E"/>
<path d="M788.247 1880.59L795.294 1840.52C795.99 1835.9 792.409 1831.73 787.729 1831.73L735.899 1831.67C731.42 1831.66 727.892 1835.48 728.256 1839.95L729.671 1880.52L788.247 1880.59" fill="#E1EDF9"/>
<path d="M841.966 1309.13L838.994 1334.98C820.495 1337.42 770.026 1344.67 722.967 1355.14L710.43 1288.49L841.966 1309.13Z" fill="#F78D77"/>
<path d="M875.425 1309.55C871.49 1309.26 867.647 1308.97 863.808 1308.59L837.801 1163.44L842.208 1086.28L852.659 1112L875.425 1309.55" fill="#21344E"/>
<path d="M702.264 941.863L695.534 966.81C684.231 1008.71 680.333 1052.26 684.011 1095.51L703.066 1319.5C703.066 1319.5 788.184 1345.31 847.907 1322.77L852.679 1112L881.384 1082.97L874.006 927.052L702.264 941.863Z" fill="#38527D"/>
<path d="M703.649 1203.43L748.822 1218.64L807.951 1209.57L807.994 1173.35C766.268 1168.43 716.321 1167.59 703.692 1167.45L703.649 1203.43ZM748.552 1224.72C748.228 1224.72 747.906 1224.67 747.598 1224.56L699.687 1208.43C698.463 1208.02 697.642 1206.87 697.644 1205.58L697.693 1164.42C697.694 1163.62 698.011 1162.86 698.577 1162.3C699.139 1161.74 699.903 1161.42 700.698 1161.42C700.7 1161.42 700.702 1161.42 700.704 1161.42C701.318 1161.42 762.631 1161.71 811.366 1167.71C812.87 1167.89 814.002 1169.17 814 1170.69L813.951 1212.15C813.949 1213.63 812.867 1214.89 811.404 1215.11L749.01 1224.69C748.858 1224.71 748.704 1224.72 748.552 1224.72Z" fill="#21344E"/>
<path d="M765.222 1299.29C750.166 1299.27 731.309 1297.39 709.63 1291.38C708.394 1291.04 707.513 1289.95 707.437 1288.67L702.582 1207.42C702.482 1205.77 703.743 1204.35 705.397 1204.25C707.071 1204.18 708.473 1205.41 708.573 1207.07L713.3 1286.16C759.229 1298.42 792.14 1291.43 800.356 1289.26L802.331 1212.93C802.374 1211.27 803.718 1210.07 805.409 1210.01C807.065 1210.05 808.373 1211.43 808.331 1213.09L806.299 1291.62C806.267 1292.88 805.445 1293.99 804.246 1294.39C803.295 1294.7 788.998 1299.31 765.222 1299.29" fill="#21344E"/>
<path d="M702.812 1008.99C702.276 1008.98 701.759 1008.7 701.489 1008.19C701.098 1007.46 701.375 1006.55 702.108 1006.16C733.919 989.172 751.332 965.536 751.504 965.301C751.992 964.628 752.929 964.48 753.601 964.97C754.271 965.457 754.419 966.395 753.932 967.065C753.755 967.309 735.933 991.499 703.519 1008.81C703.295 1008.93 703.052 1008.99 702.812 1008.99" fill="#21344E"/>
<path d="M752.511 1208.16C752.509 1210.29 750.779 1212.02 748.648 1212.02C746.516 1212.01 744.79 1210.28 744.793 1208.15C744.795 1206.02 746.525 1204.3 748.657 1204.3C750.788 1204.3 752.514 1206.03 752.511 1208.16Z" fill="#21344E"/>
<path d="M961.57 301.626C961.57 301.626 979.543 314.487 973.09 365.253C966.637 416.032 962.421 445.147 965.697 471.018C968.972 496.902 967.672 516.553 967.672 516.553L865.837 508.726L730.997 509.445C730.997 509.445 740.651 489.75 745.061 464.142C749.468 438.534 751.251 411.402 777.552 384.287C803.851 357.172 779.436 272.209 895.015 269.72C895.015 269.72 953.488 273.95 961.57 301.626" fill="#21344E"/>
<path d="M997.774 658.924C997.744 684.296 990.362 709.518 975.919 731.365C973.116 735.581 971.213 740.322 970.259 745.301L958.422 809.643C953.886 834.252 953.145 859.434 956.245 884.288L967.239 972.419C884.222 989.914 794.598 980.512 697.896 942.125L713.691 900.598C730.295 856.939 734.904 809.614 727.039 763.554L711.24 688.508C703.081 649.704 701.374 609.81 706.211 570.456L712.676 517.397C742.145 502.725 771.749 493.614 802.96 490.091C806.281 489.721 809.648 489.392 813.015 489.156C843.798 486.726 876.281 489.711 911.746 497.953C914.97 498.717 918.241 499.481 921.512 500.338C936.826 504.197 952.661 509.055 969.206 514.862L969.146 565.035L987.07 606.79C994.259 623.492 997.795 641.233 997.774 658.924" fill="#F03747"/>
<path d="M981.915 594.837L981.914 595.064L969.146 565.035L981.915 594.837Z" fill="#F03747"/>
<path d="M981.915 594.837L981.914 595.064L969.146 565.035C961.72 533.933 942.509 511.87 937.064 504.704C936.259 503.609 937.304 502.05 938.632 502.425L955.082 506.912C959.16 508.05 961.72 509.253 963.753 512.949C979.306 541.194 983.162 582.878 981.915 594.837Z" fill="#38527D"/>
<path d="M768.231 495.729C807.654 615.043 791.445 704.398 726.424 780.754L728.504 801.108C809.981 697.231 837.026 597.038 796.076 489.349C795.462 487.735 793.752 486.786 792.053 487.104L770.908 491.119C768.804 491.517 767.559 493.689 768.231 495.729Z" fill="#38527D"/>
<path d="M729.344 836.418C820.568 846.948 899.709 852.305 954.133 847.083C955.601 846.942 956.836 848.087 956.834 849.562L956.814 866.219C956.813 867.473 955.906 868.541 954.663 868.711C895.778 876.817 817.537 869.595 727.013 852.647C725.397 852.344 724.287 850.817 724.516 849.191L725.942 839.033C726.174 837.385 727.691 836.227 729.344 836.418" fill="#38527D"/>
<path d="M893.484 580.505L888.261 584.672L882.575 581.145C832.104 549.832 807.123 498.922 804.426 493.172L802.96 490.091C806.281 489.721 809.648 489.392 813.015 489.156C843.798 486.726 876.281 489.711 911.746 497.953C914.97 498.717 918.241 499.481 921.512 500.338C926.097 553.891 894.813 579.413 893.484 580.505" fill="#C72A34"/>
<path d="M907.454 874.574L891.32 874.555C890.723 874.554 890.241 874.07 890.242 873.475L890.273 846.86C890.274 846.264 890.757 845.781 891.355 845.781L907.488 845.801C908.084 845.801 908.566 846.286 908.565 846.882L908.534 873.497C908.533 874.091 908.05 874.575 907.454 874.574Z" fill="#B2D5E7"/>
<path d="M887.563 573.098C838.04 542.346 814.199 491.677 813.015 489.156L818.138 488.549C825.538 487.651 831.614 482.258 833.33 475.007L840.576 444.175C843.436 432.139 854.165 423.658 866.495 423.673C880.106 423.689 891.477 433.956 892.93 447.464L893.68 454.585L897.103 486.789L897.996 494.99L898.185 495.044C902.69 495.903 907.194 496.908 911.746 497.953C917.47 549.267 887.563 573.098 887.563 573.098Z" fill="#FBCD9E"/>
<path d="M897.103 486.789C873.726 484.255 856.517 459.274 856.517 459.274L893.68 454.585L897.103 486.789Z" fill="#F78D77"/>
<path d="M1816 1649C1816 1587.7 1766.51 1538 1705.45 1538C1691.93 1538 1678.98 1540.44 1667 1544.9V1753.1C1678.98 1757.56 1691.93 1760 1705.45 1760C1766.51 1760 1816 1710.3 1816 1649Z" fill="#D80027"/>
<path d="M855.447 397.513C850.155 414.973 843.992 429.153 840.064 445.895C871.308 477.185 927.247 477.132 941.935 420.496C951.793 382.481 956.833 327.513 956.833 327.513C947.212 342.982 940.431 353.734 902.257 358.235C880.205 360.836 861.884 376.267 855.447 397.513" fill="#FBCD9E"/>
<path d="M901.336 442.101C883.292 442.08 877.06 431.005 876.774 430.485C875.984 429.018 876.525 427.205 877.983 426.407C879.435 425.622 881.242 426.157 882.039 427.598C882.312 428.078 888.407 438.312 907.489 435.655C909.116 435.43 910.647 436.566 910.876 438.206C911.106 439.859 909.961 441.365 908.319 441.603C905.818 441.946 903.492 442.104 901.336 442.101Z" fill="#F78D77"/>
<path d="M1047.09 743.868L1069.66 731.148C1074.68 728.321 1080.5 727.272 1086.19 728.172L1139.79 736.648C1146.68 739.228 1149.38 747.54 1145.32 753.672L1129.37 777.767C1125.32 783.896 1118.46 787.577 1111.11 787.568L1067.45 787.516L1051.87 782.914L1039.76 770.135L1047.09 743.868" fill="#FBCD9E"/>
<path d="M1595 1649C1595 1696.68 1625.11 1737.33 1667.35 1753L1677 1649L1667.35 1545C1625.11 1560.67 1595 1601.32 1595 1649Z" fill="#6DA544"/>
<path d="M701.805 598.237L789.886 803.229C798.622 823.559 822.972 831.944 842.373 821.3C858.493 812.457 865.824 793.23 859.68 775.898L785.976 567.964L736.934 560.666L701.805 598.237" fill="#E1EDF9"/>
<path d="M1683.65 1705.3C1714.38 1705.3 1739.3 1680.38 1739.3 1649.65C1739.3 1618.91 1714.38 1594 1683.65 1594C1652.91 1594 1628 1618.91 1628 1649.65C1628 1680.38 1652.91 1705.3 1683.65 1705.3Z" fill="#FFDA44"/>
<path d="M841.24 752.924L1047.09 743.868L1051.87 782.914L861.878 834.142C842.906 839.258 822.761 834.769 807.897 822.114C796.423 812.94 795.041 795.867 804.867 784.685L841.24 752.924" fill="#E1EDF9"/>
<path d="M712.689 517.397L708.234 525.525C699.507 541.474 696.204 559.817 698.825 577.794L701.805 598.237C725.645 579.559 753.427 568.912 785.976 567.964L776.259 529.046L712.689 517.397" fill="#F03747"/>
<path d="M1281.7 700.095L1297.6 705.146C1301.37 706.344 1303.82 709.979 1303.52 713.924L1300.53 752.907C1300.19 757.355 1296.48 760.788 1292.02 760.782L1281.63 760.77L1268.12 755.79C1262.82 753.833 1259.29 748.773 1259.3 743.117L1259.34 712.799C1259.34 708.767 1262.06 705.247 1265.96 704.223L1281.7 700.095" fill="#FBCD9E"/>
<path d="M1653 1621V1655.78C1653 1673.07 1667.02 1687.09 1684.3 1687.09C1701.59 1687.09 1715.61 1673.07 1715.61 1655.78V1621H1653V1621Z" fill="#D80027"/>
<path d="M1684.43 1662.35C1678.68 1662.35 1674 1657.67 1674 1651.91V1638H1694.87V1651.91C1694.87 1657.67 1690.19 1662.35 1684.43 1662.35Z" fill="#F0F0F0"/>
<path d="M892.953 253.304C892.933 269.824 879.524 283.195 863.003 283.175C846.48 283.156 833.104 269.753 833.124 253.233C833.143 236.713 846.551 223.329 863.074 223.349C879.595 223.368 892.973 236.784 892.953 253.304Z" fill="#FBC428"/>
<path d="M891.039 263.742C886.852 275.11 875.888 283.217 862.988 283.202C846.484 283.182 833.127 269.74 833.146 253.233C833.158 243.366 837.91 234.652 845.22 229.247C843.983 232.472 843.315 236.032 843.31 239.738C843.291 256.285 856.649 269.674 873.201 269.694C879.888 269.702 886.055 267.523 891.039 263.742" fill="#F46C30"/>
<path d="M797.981 327.551C797.981 327.551 793.865 283.8 842.757 261.845C865.95 251.432 892.417 250.944 916.502 259.079C941.913 267.669 971.877 285.492 971.834 321.785L965.884 336.151L799.917 340.527L797.981 327.551" fill="#FBC428"/>
<path d="M789.685 358.022C872.201 346.946 934.246 343.967 975.82 349.083C977.033 349.244 978.064 348.326 978.065 347.139L978.087 328.792C978.091 325.246 975.438 322.229 971.834 321.785C943.319 318.311 887.995 319.752 797.98 327.551C792.817 327.999 788.593 331.794 787.733 336.793L784.899 353.256C784.427 356.002 786.86 358.405 789.685 358.022" fill="#F46C30"/>
<path d="M1198.42 588.361C1184.52 588.345 1173.27 577.065 1173.28 563.158C1173.3 549.251 1184.58 537.998 1198.48 538.015C1212.38 538.031 1223.64 549.311 1223.62 563.218C1223.61 577.125 1212.33 588.378 1198.42 588.361ZM1198.51 513.428C1171.48 513.396 1149.54 535.29 1149.51 562.316C1149.49 581.396 1173.83 612.692 1188.15 629.456C1193.53 635.75 1203.2 635.762 1208.59 629.48C1222.96 612.75 1247.37 581.513 1247.4 562.433C1247.43 535.406 1225.54 513.46 1198.51 513.428" fill="#F46C30"/>
<path d="M1292.82 673.114C1292.82 675.744 1290.69 677.875 1288.05 677.872C1285.42 677.869 1283.29 675.733 1283.3 673.102C1283.3 670.472 1285.44 668.341 1288.07 668.344C1290.7 668.347 1292.83 670.483 1292.82 673.114Z" fill="#38527D"/>
<path d="M1689.64 1310.14L1696.82 1337.38C1697.67 1340.6 1700.17 1343.11 1703.39 1343.96L1730.62 1351.21C1733.7 1352.04 1733.69 1356.41 1730.61 1357.22L1703.36 1364.4C1700.15 1365.25 1697.64 1367.76 1696.78 1370.97L1689.54 1398.2C1688.7 1401.28 1684.33 1401.27 1683.52 1398.19L1676.34 1370.94C1675.49 1367.73 1672.99 1365.22 1669.78 1364.36L1642.54 1357.12C1639.47 1356.3 1639.47 1351.93 1642.55 1351.1L1669.8 1343.92C1673.01 1343.07 1675.52 1340.57 1676.38 1337.36L1683.63 1310.13C1684.44 1307.05 1688.82 1307.06 1689.64 1310.14Z" fill="#6D9CD8"/>
<path d="M1436.33 585.364L1443.51 612.6C1444.36 615.814 1446.86 618.337 1450.08 619.181L1477.31 626.44C1480.39 627.257 1480.38 631.63 1477.3 632.44L1450.05 639.621C1446.84 640.469 1444.33 642.976 1443.47 646.193L1436.22 673.415C1435.41 676.495 1431.03 676.49 1430.21 673.408L1423.03 646.168C1422.18 642.95 1419.68 640.437 1416.46 639.581L1389.23 632.335C1386.15 631.518 1386.16 627.145 1389.24 626.335L1416.49 619.141C1419.7 618.305 1422.21 615.788 1423.07 612.575L1430.32 585.357C1431.15 582.278 1435.52 582.283 1436.33 585.364Z" fill="#6D9CD8"/>
<path d="M214.731 1191.52L221.912 1218.77C222.76 1221.98 225.269 1224.5 228.484 1225.35L255.707 1232.6C258.788 1233.42 258.783 1237.79 255.7 1238.6L228.46 1245.79C225.243 1246.63 222.728 1249.14 221.872 1252.36L214.626 1279.58C213.806 1282.66 209.433 1282.66 208.621 1279.57L201.439 1252.33C200.592 1249.12 198.083 1246.6 194.868 1245.75L167.644 1238.5C164.564 1237.68 164.569 1233.31 167.651 1232.5L194.892 1225.31C198.109 1224.46 200.624 1221.96 201.479 1218.74L208.726 1191.52C209.545 1188.44 213.919 1188.44 214.731 1191.52Z" fill="#6D9CD8"/>
<path d="M454.089 348.542L461.27 375.791C462.118 379.005 464.627 381.515 467.842 382.372L495.065 389.618C498.146 390.435 498.14 394.808 495.058 395.631L467.817 402.798C464.6 403.648 462.086 406.165 461.23 409.377L453.984 436.595C453.163 439.688 448.792 439.683 447.979 436.588L440.798 409.353C439.95 406.139 437.441 403.616 434.226 402.759L407.002 395.526C403.923 394.696 403.928 390.323 407.009 389.513L434.25 382.332C437.467 381.482 439.982 378.979 440.838 375.766L448.083 348.535C448.904 345.456 453.275 345.461 454.089 348.542Z" fill="#6D9CD8"/>
<g clip-path="url(#clip0)">
<path d="M1228 358.501C1228 329.145 1209.12 304.252 1182.92 295.434V421.568C1209.12 412.75 1228 387.855 1228 358.501Z" fill="url(#paint0_linear)"/>
<path d="M1162 292C1154.68 292 1147.65 293.218 1141.07 295.434V421.568C1147.65 423.783 1154.68 425 1162 425C1169.32 425 1176.35 423.783 1182.92 421.568V295.434C1176.35 293.218 1169.32 292 1162 292Z" fill="#F9F9F9"/>
<path d="M1096 358.285C1096 387.639 1114.89 412.534 1141.07 421.352V295.218C1114.89 304.036 1096 328.93 1096 358.285Z" fill="url(#paint1_linear)"/>
</g>
<g clip-path="url(#clip1)">
<path d="M1490.2 1034.59C1490.2 984.047 1457.44 941.183 1412 926V1143.18C1457.44 1127.99 1490.2 1085.13 1490.2 1034.59Z" fill="url(#paint2_linear)"/>
<path d="M1261 1034.5C1261 1085.04 1293.76 1127.9 1339.2 1143.09V925.912C1293.76 941.095 1261 983.959 1261 1034.5Z" fill="url(#paint3_linear)"/>
<path d="M1375.5 1149C1388.2 1149 1400.39 1146.9 1411.8 1143.08V925.912C1400.39 922.1 1388.2 920 1375.5 920C1362.81 920 1350.61 922.1 1339.2 925.912V1143.09C1350.61 1146.9 1362.81 1149 1375.5 1149Z" fill="#F9F9F9"/>
</g>
<path d="M644.074 115C612.258 115 585.279 134.742 575.72 162.122H712.433C702.875 134.742 675.893 115 644.074 115Z" fill="#1A1A1A"/>
<path d="M644.074 253C675.893 253 702.874 233.258 712.433 205.875H575.72C585.279 233.258 612.258 253 644.074 253Z" fill="url(#paint4_linear)"/>
<path d="M716.153 184.001C716.153 176.351 714.831 168.999 712.433 162.122H575.72C573.32 168.999 572 176.351 572 184.001C572 191.651 573.32 199.001 575.72 205.875H712.433C714.831 199.001 716.153 191.651 716.153 184.001Z" fill="url(#paint5_linear)"/>
<defs>
<linearGradient id="paint0_linear" x1="1182.92" y1="358.5" x2="1228" y2="358.5" gradientUnits="userSpaceOnUse">
<stop stop-color="#ED2224"/>
<stop offset="1" stop-color="#E61E25"/>
</linearGradient>
<linearGradient id="paint1_linear" x1="1118.54" y1="421.352" x2="1118.54" y2="295.218" gradientUnits="userSpaceOnUse">
<stop stop-color="#64BA46"/>
<stop offset="1" stop-color="#64BA46"/>
</linearGradient>
<linearGradient id="paint2_linear" x1="1451.1" y1="925.998" x2="1451.1" y2="1143.17" gradientUnits="userSpaceOnUse">
<stop stop-color="#ED2224"/>
<stop offset="1" stop-color="#ED2224"/>
</linearGradient>
<linearGradient id="paint3_linear" x1="1339.2" y1="1034.5" x2="1261" y2="1034.5" gradientUnits="userSpaceOnUse">
<stop stop-color="#1A4697"/>
<stop offset="1" stop-color="#3150A3"/>
</linearGradient>
<linearGradient id="paint4_linear" x1="644.077" y1="205.874" x2="644.077" y2="252.999" gradientUnits="userSpaceOnUse">
<stop stop-color="#FCD447"/>
<stop offset="0.6235" stop-color="#FCD447"/>
<stop offset="1" stop-color="#FFDE78"/>
</linearGradient>
<linearGradient id="paint5_linear" x1="572" y1="183.999" x2="716.153" y2="183.999" gradientUnits="userSpaceOnUse">
<stop stop-color="#ED2224"/>
<stop offset="1" stop-color="#E61E25"/>
</linearGradient>
<clipPath id="clip0">
<rect width="132" height="133" fill="white" transform="translate(1096 292)"/>
</clipPath>
<clipPath id="clip1">
<rect width="229" height="229" fill="white" transform="translate(1261 920)"/>
</clipPath>
</defs>
</svg>
