<svg width="512" height="450" viewBox="0 0 512 450" fill="none" xmlns="http://www.w3.org/2000/svg">
<path d="M376 -0.000976562H166H136C61.557 -0.000976562 0 60.556 0 134.999V224.999C0 294.374 53.588 351.679 121 359.164V434.999C121 441.063 124.647 446.542 130.258 448.856C135.791 451.165 142.281 449.929 146.606 445.604L166 426.21L232.211 359.999H376C450.443 359.999 512 299.442 512 224.999V134.999C512 60.556 450.443 -0.000976562 376 -0.000976562V-0.000976562Z" fill="#FF4A4A"/>
<path d="M376 359.999C450.443 359.999 512 299.442 512 224.999V134.999C512 60.556 450.443 -0.000976562 376 -0.000976562H166V426.21L232.211 359.999H376Z" fill="#FF4A4A"/>
<path d="M406 209.999H391V134.999C391 128.935 387.353 123.456 381.742 121.142C376.146 118.784 369.672 120.102 365.394 124.394L335.394 154.394C329.535 160.253 329.535 169.746 335.394 175.605C341.253 181.464 350.746 181.464 356.605 175.605L361 171.21V209.999H346C337.709 209.999 331 216.708 331 224.999C331 233.29 337.709 239.999 346 239.999H406C414.291 239.999 421 233.29 421 224.999C421 216.708 414.291 209.999 406 209.999V209.999Z" fill="white"/>
<path d="M166 179.999C190.853 179.999 211 159.852 211 134.999C211 110.146 190.853 89.999 166 89.999C141.147 89.999 121 110.146 121 134.999C121 159.852 141.147 179.999 166 179.999Z" fill="white"/>
<path d="M211 134.999C211 110.185 190.814 89.999 166 89.999V179.999C190.814 179.999 211 159.814 211 134.999Z" fill="white"/>
<path d="M166 179.999C124.647 179.999 91 213.646 91 254.999C91 263.29 97.709 269.999 106 269.999H166H226C234.291 269.999 241 263.29 241 254.999C241 213.647 207.353 179.999 166 179.999V179.999Z" fill="white"/>
<path d="M241 254.999C241 213.646 207.353 179.999 166 179.999V269.999H226C234.291 269.999 241 263.29 241 254.999Z" fill="white"/>
</svg>
