<svg width="478" height="426" viewBox="0 0 478 426" fill="none" xmlns="http://www.w3.org/2000/svg">
<path d="M416.322 0H61.6768C43.2561 0 26.7203 7.82788 15.4192 20.2408L9.44141 59.7929V276.587C9.44141 309.609 27.6138 336.379 61.6768 336.379H145.165C151.299 336.379 157.182 346.169 161.52 350.374L234.064 420.701L249.674 422.754C250.561 422.153 251.407 421.468 252.199 420.701L324.742 350.374C329.08 346.169 334.963 343.807 341.097 343.807H416.323C450.386 343.807 478 317.037 478 284.015V59.7929C477.999 26.7699 450.385 0 416.322 0V0Z" fill="#FF4A4A"/>
<path d="M153.258 350.374L225.801 420.701C232.298 426.999 242.395 427.683 249.673 422.754L164.161 339.805C156.986 332.849 147.055 328.86 136.906 328.86H61.6778C36.1692 328.86 15.4201 308.744 15.4201 284.016V20.2408C5.85082 30.7748 0 44.6531 0 59.7929V284.015C0 317.037 27.6138 343.808 61.6778 343.808H136.904C143.037 343.807 148.921 346.169 153.258 350.374V350.374Z" fill="#FF4A4A"/>
<path d="M361.884 142.361C358.147 110.071 329.99 84.4459 296.544 82.3416C276.284 81.0673 257.765 88.1385 244.163 100.31C241.236 102.929 236.764 102.929 233.836 100.31C220.234 88.1385 201.715 81.0673 181.455 82.3416C173.376 82.8503 165.606 84.7301 158.415 87.7458C135.831 97.2136 120.459 142.361 120.459 142.361C112.537 210.812 207.97 266.07 236.342 282.42L255.953 281.689C291.315 259.978 369.1 204.713 361.884 142.361V142.361Z" fill="white"/>
<path d="M132.789 132.531C134.866 114.594 144.547 98.6798 158.414 87.7458C135.865 97.2263 118.946 117.894 116.114 142.361C108.192 210.813 202.711 270.725 231.084 287.075C235.98 289.896 242.018 289.896 246.914 287.075C249.437 285.621 252.502 283.808 255.952 281.69C237.864 271.807 124.217 206.604 132.789 132.531V132.531Z" fill="white"/>
</svg>
