<svg width="512" height="512" viewBox="0 0 512 512" fill="none" xmlns="http://www.w3.org/2000/svg">
<g clip-path="url(#clip0)">
<path d="M511.88 475.686L471.656 254.075C471.255 251.863 469.883 249.947 467.917 248.853L366.675 192.543C365.361 191.811 363.888 191.52 362.441 191.632L380.86 429.241L380.243 429.517L501.407 483.874C502.393 484.315 503.441 484.533 504.484 484.533C506.135 484.533 507.771 483.99 509.116 482.937C511.314 481.221 512.377 478.429 511.88 475.686Z" fill="#44C868"/>
<path d="M256 246.375L152.455 192.444C151.214 191.797 149.838 191.533 148.483 191.624C148.842 191.602 149.203 191.604 149.561 191.632L131.142 429.241L252.923 483.875C253.906 484.315 254.955 484.534 256 484.534V246.375V246.375Z" fill="#44C868"/>
<path d="M149.56 191.633C148.113 191.521 146.64 191.812 145.326 192.543L44.0831 248.853C42.1171 249.946 40.7451 251.862 40.3441 254.075L0.121 475.686C-0.377001 478.428 0.687001 481.22 2.88401 482.938C4.23101 483.991 5.86601 484.534 7.51601 484.534C8.55902 484.534 9.60802 484.317 10.593 483.875L131.097 429.814L149.56 191.633Z" fill="#4CE166"/>
<path d="M362.44 191.628C361.444 191.705 360.459 191.97 359.546 192.446L256.001 246.376V484.535C256.001 484.535 256.001 484.535 256.002 484.535C257.047 484.535 258.097 484.317 259.079 483.876L380.86 429.242L362.44 191.628Z" fill="#4CE166"/>
<path d="M28.154 321.234L19.983 366.253L140.977 302.347L143.786 266.108L144.252 260.098L28.154 321.234Z" fill="#FFDB56"/>
<path d="M142.066 288.295L140.977 302.347L19.983 366.253L0.121 475.686C-0.377001 478.428 0.687001 481.22 2.88401 482.938C4.23101 483.991 5.86601 484.534 7.51601 484.534C8.55902 484.534 9.60802 484.317 10.593 483.875L131.097 429.814L142.066 288.295Z" fill="#A8EEFC"/>
<path d="M256.031 276.081L144.252 260.098L140.977 302.347L256.001 477.026V413.508L187.363 305.43L256.031 313.643V276.081Z" fill="#FFBB24"/>
<path d="M459.947 244.421L411.312 217.37L365.27 228.128L365.846 235.564L368.12 264.899L459.947 244.421Z" fill="#FFBB24"/>
<path d="M372.203 317.577L367.843 261.328L365.27 228.128L256.031 276.081V313.643L327.387 282.613L372.203 317.577Z" fill="#FFDB56"/>
<path d="M511.88 475.686L501.777 420.02L368.12 264.899L372.204 317.577L509.274 482.798C511.358 481.071 512.365 478.359 511.88 475.686Z" fill="#FFBB24"/>
<path d="M256.481 27.4651C198.518 27.4651 151.361 74.5831 151.361 132.499C151.361 168.325 168.37 206.789 201.917 246.821C226.556 276.225 250.86 295.136 251.883 295.927C253.237 296.974 254.859 297.497 256.483 297.497C258.105 297.497 259.728 296.974 261.082 295.927C262.104 295.136 286.409 276.225 311.048 246.821C344.595 206.789 361.604 168.326 361.604 132.499C361.602 74.5831 314.445 27.4651 256.481 27.4651ZM295.412 132.498C295.412 153.98 277.982 171.396 256.481 171.396C234.981 171.396 217.551 153.981 217.551 132.498C217.551 111.015 234.981 93.6002 256.481 93.6002C277.982 93.6002 295.412 111.016 295.412 132.498Z" fill="#FF4A4A"/>
<path d="M256.482 27.4651C251.887 27.4651 247.362 27.7631 242.922 28.3371C294.506 35.0041 334.485 79.1732 334.485 132.499C334.485 168.325 317.476 206.789 283.929 246.821C268.084 265.73 252.389 280.289 242.923 288.491C248.178 293.043 251.52 295.645 251.884 295.927C253.238 296.974 254.86 297.497 256.483 297.497C258.105 297.497 259.728 296.974 261.082 295.927C262.104 295.136 286.409 276.225 311.048 246.821C344.595 206.789 361.604 168.326 361.604 132.499C361.602 74.5831 314.445 27.4651 256.482 27.4651Z" fill="#FF4A4A"/>
<path d="M259.079 483.875L304.364 463.559L256.001 413.508V484.534C256.001 484.534 256.001 484.534 256.002 484.534C257.047 484.534 258.096 484.317 259.079 483.875Z" fill="#FFDB56"/>
<path d="M471.655 254.075C471.254 251.863 469.882 249.946 467.916 248.853L459.946 244.42L368.119 264.898L501.775 420.019L471.655 254.075Z" fill="#1EA4E9"/>
<path d="M255.999 484.534C256 484.534 256 484.534 255.999 484.534V477.026L140.977 302.347L131.14 429.242L252.921 483.876C253.904 484.317 254.953 484.534 255.999 484.534Z" fill="#1EA4E9"/>
</g>
<defs>
<clipPath id="clip0">
<rect width="512" height="512" fill="white"/>
</clipPath>
</defs>
</svg>
