<svg width="278" height="278" viewBox="0 0 278 278" fill="none" xmlns="http://www.w3.org/2000/svg">
<path d="M138.667 0C62.208 0 0 62.208 0 138.667C0 215.125 62.208 277.333 138.667 277.333C215.125 277.333 277.333 215.125 277.333 138.667C277.333 62.208 215.125 0 138.667 0Z" fill="#6D9CD8"/>
<path d="M139 213.333C130.168 213.333 123 206.165 123 197.333V80C123 71.168 130.168 64 139 64C147.832 64 155 71.168 155 80V197.333C155 206.165 147.832 213.333 139 213.333Z" fill="#EBEDF0"/>
<path d="M197.333 154H80C71.168 154 64 146.832 64 138C64 129.168 71.168 122 80 122H197.333C206.165 122 213.333 129.168 213.333 138C213.333 146.832 206.165 154 197.333 154Z" fill="#EBEDF0"/>
</svg>
