<svg width="481" height="481" viewBox="0 0 481 481" fill="none" xmlns="http://www.w3.org/2000/svg">
<path d="M240.135 0.0500514C144.085 0.0360514 57.277 57.289 19.472 145.586L16.48 146.578L17.64 150.058C-32.136 272.824 27.033 412.697 149.799 462.473C178.472 474.099 209.123 480.067 240.064 480.05C372.612 480.07 480.08 372.634 480.1 240.086C480.12 107.538 372.684 0.0690514 240.135 0.0500514ZM428.388 361.054L416.064 348.738V320.05C416.078 318.812 415.804 317.588 415.264 316.474L384.064 254.162V224.05C384.064 221.376 382.729 218.878 380.504 217.394L356.504 201.394C354.623 200.138 352.298 199.737 350.104 200.29L320.712 207.634L271.344 186.45L264.552 138.866L283.376 120.05H323.784L337.384 140.49C338.612 142.328 340.547 143.577 342.728 143.938L390.728 151.938C392.014 152.154 393.332 152.049 394.568 151.634L438.776 136.898C475.855 208.053 471.889 293.634 428.388 361.054ZM395.392 78.8821L382.384 87.5541L346.12 80.298L322.592 72.4661C321.152 71.9771 319.602 71.9151 318.128 72.2901L288.384 79.7221L275.344 75.3781L285.008 56.05H312.064C313.305 56.051 314.529 55.764 315.64 55.21L343.32 41.37C362.382 51.32 379.918 63.9521 395.392 78.8821ZM152.44 33.9141L171.64 46.7141C172.584 47.3421 173.65 47.762 174.768 47.946L213.536 54.41L209.752 65.7301L189.552 72.4741C187.743 73.0761 186.208 74.3041 185.224 75.9381L162.248 114.226L125.344 136.37L70.944 144.138C67.001 144.695 64.069 148.068 64.064 152.05V176.05C64.064 178.172 64.908 180.206 66.408 181.706L80.064 195.362V209.106L46.784 186.914L34.712 150.698C57.68 98.218 99.777 56.4581 152.44 33.9141ZM129.664 296.21L93.504 288.97L80.064 262.162V243.362L109.872 213.554L120.904 235.626C122.259 238.338 125.032 240.051 128.064 240.05H179.536L201.208 276.17C202.654 278.577 205.256 280.049 208.064 280.05H230.304L224.704 308.106L194.416 338.394C192.913 339.893 192.067 341.927 192.064 344.05V364.05L163.264 385.65C161.25 387.161 160.064 389.532 160.064 392.05V420.946L150.112 417.65L136.064 382.514V304.05C136.065 300.248 133.389 296.97 129.664 296.21ZM105.616 419.191C30.187 362.602 -1.71202 264.826 25.832 174.642L32.48 194.578C33.04 196.265 34.146 197.718 35.624 198.706L75.504 225.29L66.408 234.394C64.908 235.894 64.064 237.928 64.064 240.05V264.05C64.063 265.291 64.35 266.515 64.904 267.626L80.904 299.626C82.012 301.836 84.079 303.41 86.504 303.89L120.104 310.602V384.05C120.103 385.066 120.296 386.074 120.672 387.018L136.672 427.018C137.548 429.203 139.342 430.892 141.576 431.634L165.576 439.634C166.378 439.906 167.218 440.046 168.064 440.05C172.482 440.05 176.064 436.468 176.064 432.05V396.05L204.864 374.45C206.878 372.939 208.064 370.568 208.064 368.05V347.362L237.72 317.706C238.835 316.589 239.595 315.166 239.904 313.618L247.904 273.618C248.77 269.285 245.96 265.071 241.627 264.205C241.112 264.102 240.589 264.05 240.064 264.05H212.592L190.92 227.93C189.474 225.523 186.872 224.051 184.064 224.05H133.008L119.264 196.474C118.113 194.172 115.925 192.564 113.384 192.154C110.844 191.715 108.251 192.553 106.448 194.394L96.064 204.738V192.05C96.064 189.928 95.22 187.894 93.72 186.394L80.064 172.738V158.986L129.2 151.97C130.255 151.817 131.27 151.455 132.184 150.906L172.184 126.906C173.306 126.232 174.246 125.292 174.92 124.17L197.4 86.7061L218.592 79.6341C220.985 78.8491 222.863 76.9721 223.648 74.5781L231.648 50.578C233.034 46.383 230.757 41.858 226.562 40.472C226.175 40.344 225.778 40.2461 225.376 40.1781L179.072 32.458L170.936 27.0341C221.279 10.6481 275.805 12.6761 324.792 32.7541L310.176 40.05H280.064C277.017 40.033 274.226 41.749 272.864 44.474L256.864 76.4741C254.893 80.4281 256.5 85.2321 260.454 87.2031C260.791 87.3711 261.139 87.5151 261.496 87.6341L285.496 95.6341C286.936 96.1231 288.486 96.1851 289.96 95.8101L319.704 88.3781L341.496 95.6341C341.808 95.7461 342.129 95.8321 342.456 95.8901L382.456 103.89C384.536 104.314 386.7 103.888 388.464 102.706L406.672 90.562C415.633 100.543 423.686 111.303 430.736 122.714L391.376 135.834L348.76 128.73L334.68 107.61C333.204 105.397 330.724 104.063 328.064 104.05H280.064C277.942 104.05 275.908 104.894 274.408 106.394L250.408 130.394C248.626 132.175 247.787 134.692 248.144 137.186L256.144 193.186C256.547 195.955 258.367 198.312 260.944 199.402L316.944 223.402C318.548 224.097 320.338 224.24 322.032 223.81L350.6 216.666L368.064 228.33V256.05C368.05 257.288 368.324 258.512 368.864 259.626L400.064 321.938V352.05C400.064 354.172 400.908 356.206 402.408 357.706L419.144 374.45C344.921 473.383 204.549 493.415 105.616 419.191Z" fill="#6D9CD8"/>
</svg>
